<?xml version="1.0" encoding="UTF-8"?>
<svg xmlns="http://www.w3.org/2000/svg" xmlns:xlink="http://www.w3.org/1999/xlink" width="30px" height="30px" viewBox="0 0 30 30" version="1.1">
<g id="surface1">
<path style=" stroke:none;fill-rule:nonzero;fill:#ffffff;fill-opacity:1;" d="M 6.984375 9.652344 L 0.960938 9.652344 C 0.695312 9.652344 0.476562 9.867188 0.476562 10.136719 L 0.476562 29.484375 C 0.476562 29.75 0.695312 29.96875 0.960938 29.96875 L 6.984375 29.96875 C 7.25 29.96875 7.46875 29.75 7.46875 29.484375 L 7.46875 10.136719 C 7.46875 9.867188 7.25 9.652344 6.984375 9.652344 Z M 6.984375 9.652344 "/>
<path style=" stroke:none;fill-rule:nonzero;fill:#ffffff;fill-opacity:1;" d="M 3.972656 0.03125 C 1.78125 0.03125 0 1.8125 0 4.003906 C 0 6.191406 1.78125 7.972656 3.972656 7.972656 C 6.164062 7.972656 7.945312 6.191406 7.945312 4.003906 C 7.945312 1.8125 6.164062 0.03125 3.972656 0.03125 Z M 3.972656 0.03125 "/>
<path style=" stroke:none;fill-rule:nonzero;fill:#ffffff;fill-opacity:1;" d="M 22.300781 9.171875 C 19.882812 9.171875 18.09375 10.210938 17.011719 11.390625 L 17.011719 10.136719 C 17.011719 9.867188 16.792969 9.652344 16.527344 9.652344 L 10.757812 9.652344 C 10.492188 9.652344 10.273438 9.867188 10.273438 10.136719 L 10.273438 29.484375 C 10.273438 29.75 10.492188 29.96875 10.757812 29.96875 L 16.769531 29.96875 C 17.035156 29.96875 17.253906 29.75 17.253906 29.484375 L 17.253906 19.910156 C 17.253906 16.683594 18.128906 15.429688 20.378906 15.429688 C 22.824219 15.429688 23.019531 17.441406 23.019531 20.078125 L 23.019531 29.484375 C 23.019531 29.75 23.238281 29.96875 23.503906 29.96875 L 29.515625 29.96875 C 29.785156 29.96875 30 29.75 30 29.484375 L 30 18.871094 C 30 14.074219 29.085938 9.171875 22.300781 9.171875 Z M 22.300781 9.171875 "/>
</g>
</svg>
