<?xml version="1.0" encoding="UTF-8"?>
<svg xmlns="http://www.w3.org/2000/svg" xmlns:xlink="http://www.w3.org/1999/xlink" width="100px" height="100px" viewBox="0 0 100 100" version="1.1">
<g id="surface1">
<path style=" stroke:none;fill-rule:nonzero;fill:red;fill-opacity:1;" d="M 0 50 L 0 100 L 100 100 L 100 0 L 0 0 Z M 14.898438 11.480469 L 16.101562 13.859375 L 18.339844 14.898438 C 20.601562 15.980469 21.140625 16.460938 20.898438 17.21875 C 20.761719 17.660156 19.898438 18.078125 19.558594 17.878906 C 19.421875 17.800781 19.398438 17.839844 19.480469 17.960938 C 19.558594 18.101562 19.5 18.199219 19.320312 18.199219 C 19.160156 18.199219 19 18.261719 18.960938 18.359375 C 18.941406 18.441406 18.28125 18.839844 17.5 19.238281 L 16.101562 19.960938 L 14.941406 22.28125 C 14 24.179688 13.699219 24.621094 13.261719 24.71875 C 12.839844 24.839844 12.640625 24.761719 12.261719 24.300781 C 12 24 11.820312 23.621094 11.878906 23.460938 C 11.941406 23.300781 11.921875 23.21875 11.820312 23.28125 C 11.601562 23.421875 11 22.21875 11.140625 21.859375 C 11.199219 21.71875 11.140625 21.601562 11.039062 21.601562 C 10.921875 21.601562 10.660156 21.28125 10.480469 20.878906 C 10.101562 20.078125 10.019531 20.019531 7.5 18.699219 C 5.21875 17.519531 5.160156 17.460938 5.238281 16.71875 C 5.300781 16.140625 5.460938 16.019531 7.621094 14.960938 L 9.960938 13.839844 L 11.019531 11.699219 C 12.21875 9.238281 12.460938 8.960938 13.179688 9.039062 C 13.621094 9.101562 13.859375 9.441406 14.898438 11.480469 Z M 50.398438 13.179688 C 50.421875 13.460938 50.441406 13.460938 50.601562 13.179688 C 50.78125 12.878906 51.28125 12.859375 55.039062 12.898438 C 59.378906 12.960938 60 13 63 13.519531 C 63.941406 13.660156 64.78125 13.800781 64.859375 13.800781 C 64.960938 13.800781 64.960938 13.898438 64.898438 14 C 64.820312 14.140625 64.941406 14.179688 65.28125 14.078125 C 65.578125 14.019531 65.800781 14.039062 65.800781 14.160156 C 65.800781 14.28125 65.980469 14.320312 66.179688 14.261719 C 66.398438 14.199219 67.058594 14.320312 67.640625 14.519531 C 68.21875 14.71875 68.839844 14.898438 69 14.921875 C 69.160156 14.960938 69.460938 15.058594 69.699219 15.160156 C 69.921875 15.28125 70.859375 15.660156 71.800781 16 C 73.839844 16.78125 78 18.800781 78 19 C 78 19.101562 78.199219 19.199219 78.460938 19.28125 C 78.699219 19.339844 79.078125 19.539062 79.300781 19.761719 C 79.519531 19.960938 80.078125 20.339844 80.558594 20.601562 C 81.019531 20.859375 81.398438 21.160156 81.398438 21.238281 C 81.398438 21.339844 81.320312 21.359375 81.199219 21.300781 C 81.101562 21.238281 81 21.28125 81 21.398438 C 81 21.539062 81.140625 21.578125 81.339844 21.519531 C 81.699219 21.378906 83.199219 22.679688 83.199219 23.121094 C 83.199219 23.261719 83.320312 23.398438 83.480469 23.460938 C 83.820312 23.601562 85 25.660156 85.058594 26.261719 C 85.078125 26.5 85.160156 26.738281 85.238281 26.820312 C 85.460938 26.980469 85.800781 28.921875 85.800781 30.019531 C 85.800781 30.539062 85.699219 31.460938 85.578125 32.039062 C 85.320312 33.238281 84.441406 35.039062 84.179688 34.878906 C 84.078125 34.820312 84 34.921875 84 35.121094 C 84 35.300781 83.800781 35.621094 83.558594 35.839844 C 83.101562 36.21875 83.101562 36.21875 83 35.800781 C 82.941406 35.558594 82.820312 35.378906 82.71875 35.378906 C 82.460938 35.359375 82.160156 35.960938 82.300781 36.199219 C 82.480469 36.5 82.460938 36.480469 80.320312 35.398438 C 77.121094 33.738281 75.980469 32.960938 74.121094 31.039062 C 72.761719 29.621094 72.300781 28.921875 72.519531 28.539062 C 72.640625 28.359375 72.621094 28.359375 72.378906 28.539062 C 72.179688 28.699219 71.859375 28.71875 71.140625 28.539062 C 70.339844 28.359375 70 28.378906 69.140625 28.679688 C 67.539062 29.21875 67.019531 29.160156 65.820312 28.300781 C 64.480469 27.339844 63.398438 27.238281 62.460938 28 C 61.738281 28.578125 61.058594 30.398438 60.878906 32.199219 C 60.820312 32.898438 60.679688 33.359375 60.460938 33.460938 C 60.238281 33.601562 60.21875 33.679688 60.398438 33.800781 C 60.78125 34.039062 60.421875 35.378906 59.738281 36.140625 C 59.21875 36.738281 59.039062 36.820312 58.519531 36.71875 C 57.558594 36.539062 57.140625 35.859375 56.699219 33.800781 C 56.441406 32.640625 55.71875 30.21875 55.378906 29.359375 C 54.679688 27.519531 54.421875 27.039062 53.78125 26.519531 C 52.941406 25.800781 52.078125 25.839844 51 26.621094 C 49.640625 27.621094 48.558594 28.019531 47.558594 27.921875 C 47.058594 27.859375 45.699219 27.339844 44.359375 26.699219 C 42.300781 25.679688 41.898438 25.558594 40.78125 25.558594 C 40.078125 25.539062 38.898438 25.699219 38.160156 25.878906 C 37.421875 26.078125 36.699219 26.160156 36.578125 26.078125 C 36.441406 26 36.398438 26.019531 36.460938 26.140625 C 36.519531 26.238281 36.238281 26.441406 35.839844 26.578125 C 34.398438 27.101562 31.28125 28.460938 30.601562 28.898438 C 30.21875 29.140625 29.761719 29.398438 29.601562 29.480469 C 29.078125 29.71875 28.460938 30.101562 28.121094 30.378906 C 27.839844 30.621094 27.800781 30.5 27.800781 29.121094 C 27.800781 27.941406 27.859375 27.621094 28.058594 27.71875 C 28.179688 27.800781 28.140625 27.679688 27.960938 27.460938 C 27.761719 27.238281 27.601562 26.941406 27.601562 26.78125 C 27.601562 26.378906 26.601562 24.738281 25.859375 23.921875 C 24.460938 22.378906 21.78125 21.441406 19.5 21.699219 L 18.300781 21.820312 L 19.578125 20.898438 C 22.738281 18.578125 27.601562 16.160156 31.300781 15.078125 C 33.421875 14.441406 36.539062 13.800781 37.640625 13.761719 C 38.28125 13.71875 38.800781 13.660156 38.800781 13.601562 C 38.800781 13.539062 39.101562 13.460938 39.460938 13.441406 C 39.820312 13.421875 40.339844 13.339844 40.601562 13.300781 C 40.878906 13.238281 43.039062 13.140625 45.398438 13.058594 C 47.761719 13 49.71875 12.921875 49.761719 12.898438 C 49.960938 12.738281 50.398438 12.921875 50.398438 13.179688 Z M 22.699219 24.28125 C 24.019531 24.878906 24.898438 25.820312 25.421875 27.199219 C 25.921875 28.5 25.859375 29.679688 25.21875 31.5 C 24.5 33.519531 24.71875 34.839844 26.339844 38.199219 C 26.71875 39.019531 27.058594 40.039062 27.058594 40.441406 C 27.078125 40.839844 27.160156 41.078125 27.21875 40.960938 C 27.378906 40.71875 27.699219 41.71875 27.921875 43.101562 C 28.121094 44.320312 28.160156 47.578125 27.980469 48.378906 C 27.898438 48.78125 27.761719 49.359375 27.699219 49.679688 C 27.578125 50.238281 27.519531 50.179688 26.78125 48.640625 C 26.339844 47.738281 25.980469 46.941406 25.960938 46.859375 C 25.960938 46.78125 25.800781 46.480469 25.621094 46.199219 C 25.421875 45.921875 24.480469 44.121094 23.5 42.199219 C 22.519531 40.28125 21.078125 37.441406 20.28125 35.898438 C 16.738281 29 16.339844 28.121094 16.238281 27.078125 C 16.078125 25.238281 17.101562 24.160156 19.339844 23.820312 C 20.78125 23.601562 21.398438 23.679688 22.699219 24.28125 Z M 92.101562 28.058594 C 92.539062 28.960938 92.761719 29.199219 93.699219 29.660156 C 94.300781 29.960938 94.800781 30.320312 94.800781 30.480469 C 94.800781 30.640625 94.320312 31.019531 93.761719 31.339844 C 92.921875 31.78125 92.578125 32.121094 92.140625 32.941406 C 91.820312 33.519531 91.441406 34 91.28125 34 C 91.140625 34 90.71875 33.5 90.378906 32.898438 C 90.039062 32.300781 89.679688 31.800781 89.578125 31.800781 C 89.480469 31.800781 89.421875 31.699219 89.460938 31.558594 C 89.480469 31.421875 89.359375 31.300781 89.199219 31.300781 C 88.558594 31.261719 87.820312 30.941406 87.71875 30.679688 C 87.621094 30.398438 87.839844 30.21875 89.378906 29.359375 C 89.699219 29.179688 90.179688 28.640625 90.421875 28.160156 C 91.179688 26.679688 91.441406 26.660156 92.101562 28.058594 Z M 43.898438 28.78125 C 44.78125 29.261719 45.679688 29.738281 45.898438 29.859375 C 46.121094 29.980469 46.441406 30.058594 46.601562 30.039062 C 46.761719 30.019531 47.019531 30.078125 47.160156 30.160156 C 47.460938 30.359375 47.160156 31.378906 46.558594 32.238281 C 46.359375 32.519531 46.199219 32.839844 46.199219 32.941406 C 46.199219 33.039062 45.679688 33.621094 45.039062 34.261719 C 43.539062 35.738281 42.179688 36.28125 39.800781 36.28125 C 38.300781 36.300781 37.980469 36.21875 37.058594 35.71875 C 36.5 35.398438 35.738281 34.859375 35.378906 34.519531 C 34.660156 33.820312 33.539062 32.140625 33.121094 31.121094 C 32.859375 30.480469 32.859375 30.441406 33.238281 30.339844 C 33.460938 30.28125 33.578125 30.140625 33.519531 30.039062 C 33.359375 29.761719 36.898438 28.320312 37.238281 28.519531 C 37.320312 28.578125 37.398438 28.539062 37.398438 28.441406 C 37.398438 28.140625 40.378906 27.660156 41.398438 27.800781 C 41.898438 27.878906 43.019531 28.320312 43.898438 28.78125 Z M 52.820312 28.621094 C 52.898438 28.78125 53.039062 29.121094 53.160156 29.398438 C 53.261719 29.679688 53.460938 30.160156 53.601562 30.5 C 53.761719 30.921875 53.761719 31.121094 53.621094 31.160156 C 53.480469 31.199219 53.558594 31.441406 53.800781 31.738281 C 54.019531 32.019531 54.199219 32.421875 54.199219 32.621094 C 54.199219 33.28125 55 35.921875 55.480469 36.878906 C 55.738281 37.378906 56.160156 37.960938 56.421875 38.179688 C 57.058594 38.679688 58.238281 38.980469 59.039062 38.859375 C 59.699219 38.761719 61.058594 37.921875 61.621094 37.28125 C 62.179688 36.621094 62.640625 35.160156 62.921875 33.101562 C 63.300781 30.320312 63.378906 30.019531 63.78125 29.820312 C 64.039062 29.679688 64.261719 29.738281 64.640625 30.078125 C 65.261719 30.679688 66.300781 31.21875 66.980469 31.320312 C 67.261719 31.359375 68 31.21875 68.601562 31 C 70.339844 30.359375 70.460938 30.398438 72.238281 32.28125 C 73.820312 33.960938 76.878906 36.21875 78.460938 36.859375 C 78.859375 37.039062 79.199219 37.28125 79.199219 37.398438 C 79.199219 37.519531 79.28125 37.558594 79.398438 37.5 C 79.5 37.441406 79.859375 37.519531 80.21875 37.699219 C 80.800781 38.019531 80.820312 38.039062 80.460938 38.320312 C 80.261719 38.5 80.199219 38.578125 80.339844 38.519531 C 80.699219 38.320312 80.398438 39.140625 79.898438 39.679688 C 79.640625 39.960938 79.5 40.238281 79.578125 40.320312 C 79.71875 40.480469 79.261719 40.359375 78 39.898438 C 77.5 39.71875 77.039062 39.460938 76.960938 39.339844 C 76.839844 39.160156 76.800781 39.179688 76.800781 39.359375 C 76.800781 39.539062 76.660156 39.578125 76.378906 39.5 C 75.980469 39.359375 72.960938 39.320312 72.398438 39.441406 C 72.238281 39.480469 71.980469 39.578125 71.859375 39.660156 C 71.71875 39.761719 71.519531 39.761719 71.398438 39.699219 C 71.300781 39.640625 71.199219 39.660156 71.199219 39.761719 C 71.199219 39.859375 70.761719 40.21875 70.199219 40.558594 C 69.621094 40.921875 68.980469 41.539062 68.640625 42.101562 C 68.339844 42.601562 68 42.941406 67.898438 42.859375 C 67.820312 42.761719 67.800781 42.820312 67.878906 42.941406 C 67.960938 43.078125 67.960938 43.320312 67.859375 43.441406 C 67.519531 43.980469 67.300781 46.140625 67.441406 47.398438 C 67.679688 49.5 68.460938 51.179688 70.359375 53.78125 L 71.460938 55.28125 L 70.960938 56.179688 C 70.679688 56.679688 69.859375 58.179688 69.160156 59.5 C 68.441406 60.820312 67.519531 62.480469 67.140625 63.199219 C 66.738281 63.921875 66.28125 64.539062 66.078125 64.578125 C 65.859375 64.621094 65.820312 64.679688 65.980469 64.78125 C 66.199219 64.921875 65.199219 67.101562 64.21875 68.601562 C 64.039062 68.878906 63.679688 69.519531 63.398438 70.039062 C 62.300781 72.121094 61.101562 73.960938 60.941406 73.859375 C 60.839844 73.800781 60.800781 73.859375 60.839844 74.019531 C 60.898438 74.179688 60.679688 74.679688 60.378906 75.140625 C 60.058594 75.601562 59.800781 76.058594 59.800781 76.179688 C 59.800781 76.300781 59.71875 76.398438 59.601562 76.398438 C 59.5 76.398438 59.398438 76.480469 59.398438 76.601562 C 59.398438 76.761719 57.960938 79.238281 57 80.679688 C 56.839844 80.941406 56.339844 81.761719 55.921875 82.5 L 55.140625 83.839844 L 54.480469 82.78125 C 54.101562 82.199219 53.839844 81.679688 53.898438 81.640625 C 53.960938 81.578125 53.859375 81.441406 53.71875 81.320312 C 53.558594 81.199219 53.179688 80.640625 52.878906 80.101562 C 51.480469 77.5 51.199219 76.898438 51.378906 76.839844 C 51.480469 76.800781 51.519531 76.640625 51.460938 76.480469 C 51.359375 76.21875 51.320312 76.21875 51.179688 76.421875 C 51.078125 76.601562 50.699219 76 50.039062 74.621094 L 49.058594 72.539062 L 49.679688 71.699219 C 50.019531 71.238281 50.378906 70.898438 50.480469 70.960938 C 50.578125 71.019531 50.601562 70.960938 50.539062 70.859375 C 50.460938 70.738281 50.601562 70.21875 50.820312 69.679688 C 51.179688 68.898438 51.238281 68.460938 51.160156 67.21875 C 51.078125 65.800781 50.878906 65.140625 50.019531 63.441406 C 49.558594 62.519531 48.058594 60.839844 47.378906 60.480469 C 47.058594 60.320312 46.839844 60.101562 46.898438 60 C 46.980469 59.878906 46.738281 59.800781 46.398438 59.800781 C 46.058594 59.800781 45.578125 59.699219 45.339844 59.558594 C 45.101562 59.441406 44.359375 59.320312 43.679688 59.300781 C 43 59.300781 42.300781 59.160156 42.140625 59.039062 C 41.980469 58.898438 41.558594 58.699219 41.238281 58.621094 C 40.398438 58.378906 39.898438 58.78125 39.699219 59.839844 C 39.621094 60.320312 39.519531 60.78125 39.5 60.898438 C 39.460938 61 39.339844 61.679688 39.21875 62.378906 C 38.898438 64.300781 37.679688 67.980469 36.941406 69.199219 C 36.238281 70.359375 35.71875 70.738281 34.578125 70.878906 C 33.199219 71.039062 31.039062 69.800781 31.300781 68.980469 C 31.359375 68.78125 31.300781 68.558594 31.179688 68.480469 C 31 68.378906 30.980469 68.441406 31.058594 68.660156 C 31.121094 68.859375 31.140625 69 31.078125 69 C 30.839844 69 29.820312 66.378906 29.519531 64.898438 C 29.320312 64.019531 29.078125 62.980469 28.980469 62.601562 C 28.859375 62.21875 28.71875 60.460938 28.660156 58.699219 C 28.558594 55.398438 28.660156 54.578125 29.71875 50.199219 C 30.21875 48.101562 30.320312 44.121094 29.898438 42.359375 C 29.578125 41.019531 28.699219 38.558594 27.738281 36.421875 C 27.121094 34.980469 26.800781 33.980469 26.921875 33.78125 C 27.039062 33.558594 30.621094 31.199219 30.820312 31.199219 C 30.980469 31.199219 31.859375 32.980469 31.859375 33.339844 C 31.859375 33.480469 31.980469 33.621094 32.101562 33.679688 C 32.5 33.820312 33.199219 35.160156 32.941406 35.28125 C 32.800781 35.320312 32.859375 35.378906 33.058594 35.378906 C 33.480469 35.398438 35.761719 37.199219 35.78125 37.519531 C 35.800781 37.660156 35.941406 37.800781 36.078125 37.859375 C 36.28125 37.941406 36.339844 37.878906 36.28125 37.699219 C 36.199219 37.5 36.441406 37.519531 37.238281 37.839844 C 39.339844 38.660156 42.621094 38.261719 44.660156 36.921875 C 46.898438 35.480469 48.140625 33.839844 48.980469 31.179688 C 49.339844 30.101562 49.5 29.859375 50.058594 29.621094 C 50.398438 29.460938 51.058594 29.078125 51.5 28.761719 C 52.320312 28.160156 52.578125 28.140625 52.820312 28.621094 Z M 74.800781 41.441406 C 74.800781 41.640625 74.839844 41.640625 74.980469 41.441406 C 75.121094 41.21875 75.359375 41.21875 76.378906 41.421875 C 77.058594 41.539062 77.660156 41.738281 77.71875 41.820312 C 77.78125 41.921875 77.660156 42.238281 77.441406 42.558594 C 77.238281 42.859375 76.820312 43.601562 76.519531 44.199219 C 76.199219 44.800781 75.839844 45.441406 75.71875 45.601562 C 75.578125 45.761719 75.199219 46.480469 74.839844 47.199219 C 73.660156 49.578125 72.941406 50.679688 72.699219 50.441406 C 72.601562 50.359375 72.601562 50.398438 72.679688 50.539062 C 72.839844 50.820312 72 52.621094 71.78125 52.480469 C 71.601562 52.378906 70.398438 50.640625 70.398438 50.5 C 70.398438 50.441406 70.179688 49.941406 69.921875 49.359375 C 69.460938 48.359375 69.019531 46.359375 69.320312 46.660156 C 69.480469 46.820312 70 46.441406 70 46.179688 C 70 46.078125 69.859375 46 69.679688 46 C 69.519531 46 69.441406 46.078125 69.5 46.199219 C 69.558594 46.300781 69.519531 46.398438 69.378906 46.398438 C 69.058594 46.398438 69.28125 44.800781 69.71875 43.859375 C 70.179688 42.941406 71.121094 42.019531 72.101562 41.578125 C 73.039062 41.140625 74.800781 41.058594 74.800781 41.441406 Z M 78.339844 46.941406 C 78.261719 48.578125 78.199219 50.039062 78.199219 50.21875 C 78.199219 50.460938 78.058594 50.519531 77.660156 50.460938 C 77.121094 50.398438 77.101562 50.398438 77.578125 50.601562 C 78 50.78125 78.039062 50.898438 77.921875 51.660156 C 77.839844 52.121094 77.679688 52.820312 77.558594 53.199219 C 77.441406 53.578125 77.320312 54.019531 77.28125 54.160156 C 77.21875 54.359375 77.078125 54.320312 76.660156 54.058594 C 76.179688 53.761719 76.140625 53.761719 76.359375 54.039062 C 76.578125 54.320312 76.558594 54.378906 76.261719 54.460938 C 76.039062 54.519531 76.121094 54.558594 76.480469 54.578125 C 77.121094 54.601562 77.101562 54.859375 76.339844 55.800781 C 75.859375 56.398438 75.441406 56.601562 74.5 56.601562 C 73.761719 56.601562 72.601562 55.921875 72.601562 55.5 C 72.601562 55.320312 72.679688 55.21875 72.78125 55.28125 C 72.878906 55.339844 73.058594 55.261719 73.199219 55.101562 C 73.421875 54.839844 73.398438 54.820312 73.121094 54.921875 C 72.941406 54.980469 72.800781 54.980469 72.800781 54.898438 C 72.800781 54.699219 78.261719 44 78.359375 44 C 78.421875 44 78.398438 45.320312 78.339844 46.941406 Z M 24.441406 62.101562 C 25.019531 63.28125 25.21875 63.480469 26.300781 64.019531 C 27.738281 64.78125 28 64.960938 28 65.320312 C 28 65.640625 26.28125 66.679688 26.019531 66.519531 C 25.921875 66.460938 25.78125 66.539062 25.71875 66.71875 C 25.640625 66.941406 25.441406 67.019531 25.101562 66.960938 C 24.820312 66.898438 24.578125 66.960938 24.519531 67.121094 C 24.460938 67.28125 24.519531 67.339844 24.71875 67.261719 C 25.101562 67.121094 25.101562 67.101562 24.339844 68.601562 C 23.460938 70.359375 23.140625 70.339844 22.160156 68.5 C 21.5 67.21875 21.339844 67.058594 20.058594 66.398438 C 18.160156 65.421875 18.160156 65.101562 20.039062 64.121094 C 21.359375 63.441406 21.539062 63.261719 21.980469 62.339844 C 22.800781 60.578125 22.960938 60.359375 23.398438 60.601562 C 23.601562 60.699219 24.058594 61.378906 24.441406 62.101562 Z M 46.019531 61.921875 C 47.019531 62.421875 48.238281 63.761719 48.5 64.601562 C 48.578125 64.878906 48.78125 65.28125 48.921875 65.5 C 49.261719 65.980469 49.28125 66.539062 48.960938 66.660156 C 48.800781 66.71875 48.859375 66.78125 49.078125 66.78125 C 49.421875 66.800781 49.441406 66.898438 49.320312 67.839844 C 49.238281 68.421875 48.980469 69.238281 48.738281 69.660156 L 48.320312 70.421875 L 47.960938 69.960938 C 47.78125 69.699219 47.480469 69.101562 47.300781 68.601562 C 47.121094 68.101562 46.898438 67.558594 46.78125 67.398438 C 46.679688 67.238281 46.460938 66.800781 46.28125 66.441406 C 45.640625 65.019531 44.839844 63.460938 44.21875 62.320312 L 43.558594 61.140625 L 44.320312 61.300781 C 44.738281 61.359375 45.5 61.640625 46.019531 61.921875 Z M 43.78125 66.28125 C 44.898438 68.539062 45.800781 70.421875 45.800781 70.480469 C 45.800781 70.539062 46.078125 71.199219 46.441406 71.941406 C 46.78125 72.679688 47.058594 73.398438 47.058594 73.539062 C 47.058594 73.679688 47.140625 73.800781 47.21875 73.800781 C 47.320312 73.800781 47.601562 74.480469 47.679688 75 C 47.699219 75.058594 47.898438 75.359375 48.121094 75.699219 C 48.359375 76.019531 48.621094 76.5 48.699219 76.761719 C 48.78125 77.019531 49.199219 77.859375 49.640625 78.621094 C 50.078125 79.398438 50.378906 80.140625 50.320312 80.320312 C 50.261719 80.480469 50.28125 80.578125 50.378906 80.519531 C 50.480469 80.460938 50.699219 80.621094 50.878906 80.898438 C 51.121094 81.261719 51.140625 81.398438 50.960938 81.398438 C 50.820312 81.398438 50.898438 81.558594 51.140625 81.761719 C 51.519531 82.078125 53.878906 85.800781 53.761719 85.921875 C 53.71875 85.941406 53.21875 86.058594 52.640625 86.160156 C 51.78125 86.320312 51.519531 86.300781 51.28125 86.058594 C 51.121094 85.898438 51 85.859375 51 85.980469 C 51 86.5 47.898438 85.878906 47.460938 85.261719 C 47.300781 85.058594 47.199219 85.019531 47.199219 85.179688 C 47.199219 85.460938 45.441406 84.5 45.058594 84 C 44.71875 83.578125 43.800781 81.699219 43.800781 81.441406 C 43.800781 81.320312 43.71875 81.199219 43.640625 81.160156 C 43.378906 81.058594 40.800781 75.859375 40.941406 75.71875 C 41.019531 75.660156 40.960938 75.601562 40.820312 75.601562 C 40.558594 75.601562 39.78125 74 39.921875 73.761719 C 39.980469 73.679688 39.921875 73.601562 39.820312 73.601562 C 39.699219 73.601562 39.339844 73.078125 39.019531 72.421875 L 38.421875 71.238281 L 39.28125 69.320312 C 39.761719 68.261719 40.21875 67.179688 40.300781 66.941406 C 40.378906 66.699219 40.460938 66.460938 40.480469 66.398438 C 40.5 66.339844 40.738281 65.378906 41 64.261719 C 41.28125 63.121094 41.558594 62.199219 41.640625 62.199219 C 41.699219 62.199219 42.679688 64.039062 43.78125 66.28125 Z M 73.699219 71.398438 C 74.121094 72.238281 74.339844 72.921875 74.261719 73.121094 C 74.179688 73.359375 74.199219 73.421875 74.359375 73.320312 C 74.5 73.238281 74.660156 73.300781 74.71875 73.480469 C 74.78125 73.660156 75.679688 74.199219 76.699219 74.699219 C 78.5 75.601562 78.960938 76.039062 78.601562 76.601562 C 78.480469 76.78125 78.398438 76.761719 78.261719 76.519531 C 77.980469 76.019531 77.339844 76.320312 77.601562 76.820312 C 77.761719 77.101562 77.71875 77.21875 77.421875 77.398438 C 77.199219 77.5 76.898438 77.539062 76.71875 77.480469 C 76.558594 77.421875 76.339844 77.519531 76.21875 77.761719 C 76.101562 77.980469 75.761719 78.261719 75.441406 78.378906 C 75.121094 78.519531 74.71875 78.921875 74.519531 79.320312 C 74.339844 79.71875 74.101562 79.960938 73.980469 79.878906 C 73.859375 79.820312 73.78125 79.898438 73.800781 80.121094 C 73.859375 80.738281 73.578125 81.398438 73.21875 81.398438 C 72.980469 81.398438 72.960938 81.441406 73.160156 81.578125 C 73.539062 81.820312 72.878906 82.441406 72.339844 82.359375 C 71.820312 82.28125 70.878906 80.78125 70.679688 79.761719 C 70.621094 79.339844 70.480469 79.058594 70.398438 79.101562 C 70.320312 79.160156 70.199219 79.078125 70.140625 78.941406 C 70.101562 78.800781 69.539062 78.441406 68.921875 78.140625 C 68.300781 77.839844 67.839844 77.5 67.898438 77.398438 C 67.960938 77.28125 67.921875 77.039062 67.800781 76.859375 C 67.601562 76.539062 67.578125 76.558594 67.679688 76.960938 C 67.738281 77.320312 67.699219 77.398438 67.460938 77.320312 C 67.300781 77.261719 67.101562 77.199219 67 77.199219 C 66.699219 77.199219 66.199219 76.578125 66.199219 76.199219 C 66.199219 75.839844 67.300781 75.058594 67.660156 75.160156 C 67.738281 75.179688 67.800781 75.121094 67.800781 75 C 67.800781 74.898438 68.28125 74.601562 68.878906 74.320312 C 69.738281 73.921875 70.058594 73.640625 70.480469 72.878906 C 70.78125 72.359375 71.058594 71.71875 71.121094 71.460938 C 71.199219 71.199219 71.320312 71 71.421875 71 C 71.519531 71 71.601562 70.878906 71.601562 70.738281 C 71.601562 70.339844 72.039062 70 72.539062 70 C 72.898438 70 73.140625 70.28125 73.699219 71.398438 Z M 62.121094 77.238281 C 62.058594 77.941406 61.960938 79.121094 61.898438 79.898438 C 61.820312 80.800781 61.660156 81.378906 61.480469 81.519531 C 61.261719 81.699219 61.238281 81.78125 61.421875 81.839844 C 61.71875 81.941406 61.121094 85.21875 60.679688 85.941406 C 60.519531 86.179688 60.398438 86.539062 60.398438 86.71875 C 60.398438 86.921875 60.179688 87.359375 59.878906 87.738281 C 59.28125 88.539062 58.519531 88.621094 57.738281 87.941406 C 57.21875 87.5 56.601562 86.101562 56.601562 85.378906 C 56.601562 84.839844 58.421875 81.980469 58.660156 82.140625 C 58.78125 82.199219 58.800781 82.160156 58.71875 82.039062 C 58.558594 81.78125 60.101562 79 60.398438 79 C 60.519531 79 60.601562 78.859375 60.601562 78.71875 C 60.601562 78.398438 61.941406 76 62.121094 76 C 62.179688 76 62.179688 76.558594 62.121094 77.238281 Z M 62.121094 77.238281 "/>
<path style=" stroke:none;fill-rule:nonzero;fill:red;fill-opacity:1;" d="M 12.800781 9.601562 C 12.800781 9.699219 12.898438 9.800781 13 9.800781 C 13.121094 9.800781 13.199219 9.699219 13.199219 9.601562 C 13.199219 9.480469 13.121094 9.398438 13 9.398438 C 12.898438 9.398438 12.800781 9.480469 12.800781 9.601562 Z M 12.800781 9.601562 "/>
<path style=" stroke:none;fill-rule:nonzero;fill:red;fill-opacity:1;" d="M 11.738281 15.378906 C 11.660156 15.71875 11.679688 15.800781 11.839844 15.640625 C 11.941406 15.539062 12 15.320312 11.960938 15.179688 C 11.898438 15.019531 11.820312 15.121094 11.738281 15.378906 Z M 11.738281 15.378906 "/>
<path style=" stroke:none;fill-rule:nonzero;fill:red;fill-opacity:1;" d="M 15.699219 16.800781 C 15.640625 16.898438 15.679688 17 15.78125 17 C 15.898438 17 16 16.898438 16 16.800781 C 16 16.679688 15.960938 16.601562 15.921875 16.601562 C 15.859375 16.601562 15.761719 16.679688 15.699219 16.800781 Z M 15.699219 16.800781 "/>
<path style=" stroke:none;fill-rule:nonzero;fill:red;fill-opacity:1;" d="M 12.898438 18.800781 C 12.960938 18.898438 13.058594 19 13.121094 19 C 13.160156 19 13.199219 18.898438 13.199219 18.800781 C 13.199219 18.679688 13.101562 18.601562 12.980469 18.601562 C 12.878906 18.601562 12.839844 18.679688 12.898438 18.800781 Z M 12.898438 18.800781 "/>
<path style=" stroke:none;fill-rule:nonzero;fill:red;fill-opacity:1;" d="M 11.539062 20.101562 C 11.378906 20.261719 11.199219 20.320312 11.121094 20.261719 C 11.058594 20.179688 11 20.199219 11 20.261719 C 11 20.460938 11.78125 21.199219 11.980469 21.199219 C 12.101562 21.199219 12.160156 21.019531 12.140625 20.800781 C 12.121094 20.578125 12.039062 20.398438 11.941406 20.398438 C 11.839844 20.398438 11.859375 20.261719 12 20.101562 C 12.320312 19.699219 11.921875 19.699219 11.539062 20.101562 Z M 11.539062 20.101562 "/>
<path style=" stroke:none;fill-rule:nonzero;fill:red;fill-opacity:1;" d="M 13.539062 19.941406 C 13.480469 20.039062 13.5 20.238281 13.578125 20.378906 C 13.71875 20.578125 13.78125 20.578125 13.898438 20.398438 C 13.980469 20.28125 13.960938 20.078125 13.839844 19.960938 C 13.738281 19.859375 13.601562 19.839844 13.539062 19.941406 Z M 13.539062 19.941406 "/>
<path style=" stroke:none;fill-rule:nonzero;fill:red;fill-opacity:1;" d="M 52.398438 13.398438 C 52.398438 13.5 52.5 13.601562 52.621094 13.601562 C 52.71875 13.601562 52.761719 13.5 52.699219 13.398438 C 52.640625 13.28125 52.539062 13.199219 52.480469 13.199219 C 52.441406 13.199219 52.398438 13.28125 52.398438 13.398438 Z M 52.398438 13.398438 "/>
<path style=" stroke:none;fill-rule:nonzero;fill:red;fill-opacity:1;" d="M 60.300781 14 C 60.238281 14.101562 60.320312 14.199219 60.480469 14.199219 C 60.660156 14.199219 60.800781 14.101562 60.800781 14 C 60.800781 13.878906 60.71875 13.800781 60.621094 13.800781 C 60.5 13.800781 60.359375 13.878906 60.300781 14 Z M 60.300781 14 "/>
<path style=" stroke:none;fill-rule:nonzero;fill:red;fill-opacity:1;" d="M 56 14.378906 C 56 14.621094 56.121094 14.800781 56.28125 14.800781 C 56.621094 14.800781 56.578125 14.160156 56.238281 14.039062 C 56.101562 14 56 14.160156 56 14.378906 Z M 56 14.378906 "/>
<path style=" stroke:none;fill-rule:nonzero;fill:red;fill-opacity:1;" d="M 32.800781 15.019531 C 32.800781 15.121094 32.898438 15.160156 33 15.101562 C 33.121094 15.039062 33.199219 14.941406 33.199219 14.878906 C 33.199219 14.839844 33.121094 14.800781 33 14.800781 C 32.898438 14.800781 32.800781 14.898438 32.800781 15.019531 Z M 32.800781 15.019531 "/>
<path style=" stroke:none;fill-rule:nonzero;fill:red;fill-opacity:1;" d="M 30.421875 15.921875 C 30.421875 16.140625 30.480469 16.199219 30.539062 16.039062 C 30.601562 15.898438 30.578125 15.71875 30.519531 15.660156 C 30.460938 15.578125 30.398438 15.699219 30.421875 15.921875 Z M 30.421875 15.921875 "/>
<path style=" stroke:none;fill-rule:nonzero;fill:red;fill-opacity:1;" d="M 57.199219 15.800781 C 57.199219 15.898438 57.300781 16 57.421875 16 C 57.519531 16 57.558594 15.898438 57.5 15.800781 C 57.441406 15.679688 57.339844 15.601562 57.28125 15.601562 C 57.238281 15.601562 57.199219 15.679688 57.199219 15.800781 Z M 57.199219 15.800781 "/>
<path style=" stroke:none;fill-rule:nonzero;fill:red;fill-opacity:1;" d="M 67.699219 16.800781 C 67.640625 16.898438 67.679688 17 67.78125 17 C 67.898438 17 68 16.898438 68 16.800781 C 68 16.679688 67.960938 16.601562 67.921875 16.601562 C 67.859375 16.601562 67.761719 16.679688 67.699219 16.800781 Z M 67.699219 16.800781 "/>
<path style=" stroke:none;fill-rule:nonzero;fill:red;fill-opacity:1;" d="M 60.398438 17 C 60.398438 17.101562 60.5 17.199219 60.621094 17.199219 C 60.71875 17.199219 60.761719 17.101562 60.699219 17 C 60.640625 16.878906 60.539062 16.800781 60.480469 16.800781 C 60.441406 16.800781 60.398438 16.878906 60.398438 17 Z M 60.398438 17 "/>
<path style=" stroke:none;fill-rule:nonzero;fill:red;fill-opacity:1;" d="M 43.898438 17.21875 C 43.820312 17.339844 43.800781 17.460938 43.859375 17.519531 C 43.898438 17.578125 44 17.480469 44.058594 17.300781 C 44.199219 16.960938 44.078125 16.898438 43.898438 17.21875 Z M 43.898438 17.21875 "/>
<path style=" stroke:none;fill-rule:nonzero;fill:red;fill-opacity:1;" d="M 64.601562 17.460938 C 64.601562 17.640625 64.679688 17.820312 64.78125 17.878906 C 64.878906 17.960938 64.941406 17.859375 64.921875 17.699219 C 64.859375 17.28125 64.601562 17.078125 64.601562 17.460938 Z M 64.601562 17.460938 "/>
<path style=" stroke:none;fill-rule:nonzero;fill:red;fill-opacity:1;" d="M 28.199219 17.601562 C 28.199219 17.699219 28.28125 17.800781 28.378906 17.800781 C 28.5 17.800781 28.640625 17.699219 28.699219 17.601562 C 28.761719 17.480469 28.679688 17.398438 28.519531 17.398438 C 28.339844 17.398438 28.199219 17.480469 28.199219 17.601562 Z M 28.199219 17.601562 "/>
<path style=" stroke:none;fill-rule:nonzero;fill:red;fill-opacity:1;" d="M 49.300781 17.820312 C 49.21875 17.941406 49.199219 18.058594 49.261719 18.121094 C 49.300781 18.179688 49.398438 18.078125 49.460938 17.898438 C 49.601562 17.558594 49.480469 17.5 49.300781 17.820312 Z M 49.300781 17.820312 "/>
<path style=" stroke:none;fill-rule:nonzero;fill:red;fill-opacity:1;" d="M 72.621094 17.921875 C 72.621094 18.140625 72.679688 18.199219 72.738281 18.039062 C 72.800781 17.898438 72.78125 17.71875 72.71875 17.660156 C 72.660156 17.578125 72.601562 17.699219 72.621094 17.921875 Z M 72.621094 17.921875 "/>
<path style=" stroke:none;fill-rule:nonzero;fill:red;fill-opacity:1;" d="M 56.199219 19.101562 C 56.058594 19.261719 56.019531 19.398438 56.078125 19.398438 C 56.160156 19.398438 56.359375 19.261719 56.519531 19.101562 C 56.699219 18.941406 56.738281 18.800781 56.640625 18.800781 C 56.539062 18.800781 56.339844 18.941406 56.199219 19.101562 Z M 56.199219 19.101562 "/>
<path style=" stroke:none;fill-rule:nonzero;fill:red;fill-opacity:1;" d="M 75.101562 19.601562 C 75.160156 19.699219 75.261719 19.800781 75.320312 19.800781 C 75.359375 19.800781 75.398438 19.699219 75.398438 19.601562 C 75.398438 19.480469 75.300781 19.398438 75.179688 19.398438 C 75.078125 19.398438 75.039062 19.480469 75.101562 19.601562 Z M 75.101562 19.601562 "/>
<path style=" stroke:none;fill-rule:nonzero;fill:red;fill-opacity:1;" d="M 66.519531 20.578125 C 66.441406 20.679688 66.578125 20.71875 66.800781 20.660156 C 67.261719 20.539062 67.320312 20.398438 66.921875 20.398438 C 66.761719 20.398438 66.578125 20.480469 66.519531 20.578125 Z M 66.519531 20.578125 "/>
<path style=" stroke:none;fill-rule:nonzero;fill:red;fill-opacity:1;" d="M 25.398438 20.78125 C 25.398438 20.898438 25.5 21.039062 25.601562 21.101562 C 25.71875 21.160156 25.800781 21.078125 25.800781 20.921875 C 25.800781 20.738281 25.71875 20.601562 25.601562 20.601562 C 25.5 20.601562 25.398438 20.679688 25.398438 20.78125 Z M 25.398438 20.78125 "/>
<path style=" stroke:none;fill-rule:nonzero;fill:red;fill-opacity:1;" d="M 21.898438 21.398438 C 21.839844 21.5 21.878906 21.601562 21.980469 21.601562 C 22.101562 21.601562 22.199219 21.5 22.199219 21.398438 C 22.199219 21.28125 22.160156 21.199219 22.121094 21.199219 C 22.058594 21.199219 21.960938 21.28125 21.898438 21.398438 Z M 21.898438 21.398438 "/>
<path style=" stroke:none;fill-rule:nonzero;fill:red;fill-opacity:1;" d="M 29.238281 21.699219 C 29.300781 22.300781 29.320312 22.320312 29.578125 21.820312 C 29.738281 21.539062 29.71875 21.421875 29.5 21.320312 C 29.28125 21.238281 29.21875 21.339844 29.238281 21.699219 Z M 29.238281 21.699219 "/>
<path style=" stroke:none;fill-rule:nonzero;fill:red;fill-opacity:1;" d="M 77.421875 21.640625 C 77.519531 21.839844 77.660156 22 77.71875 22 C 77.78125 22 77.761719 21.898438 77.679688 21.78125 C 77.621094 21.660156 77.679688 21.480469 77.820312 21.378906 C 78.019531 21.261719 77.980469 21.21875 77.660156 21.261719 C 77.320312 21.28125 77.261719 21.359375 77.421875 21.640625 Z M 77.421875 21.640625 "/>
<path style=" stroke:none;fill-rule:nonzero;fill:red;fill-opacity:1;" d="M 34.261719 21.71875 C 34.261719 22.019531 34.398438 22.058594 34.878906 21.878906 C 35.339844 21.699219 35.28125 21.5 34.738281 21.480469 C 34.460938 21.460938 34.261719 21.558594 34.261719 21.71875 Z M 34.261719 21.71875 "/>
<path style=" stroke:none;fill-rule:nonzero;fill:red;fill-opacity:1;" d="M 37.199219 21.800781 C 37.199219 21.921875 37.339844 22 37.5 22 C 37.660156 22 37.800781 21.960938 37.800781 21.921875 C 37.800781 21.878906 37.660156 21.800781 37.5 21.71875 C 37.339844 21.660156 37.199219 21.699219 37.199219 21.800781 Z M 37.199219 21.800781 "/>
<path style=" stroke:none;fill-rule:nonzero;fill:red;fill-opacity:1;" d="M 60.398438 21.761719 C 60.398438 21.859375 60.539062 21.941406 60.699219 21.941406 C 60.859375 21.941406 61 21.859375 61 21.761719 C 61 21.679688 60.859375 21.601562 60.699219 21.601562 C 60.539062 21.601562 60.398438 21.679688 60.398438 21.761719 Z M 60.398438 21.761719 "/>
<path style=" stroke:none;fill-rule:nonzero;fill:red;fill-opacity:1;" d="M 52.21875 22.539062 C 52.199219 22.78125 52.300781 23.039062 52.398438 23.101562 C 52.640625 23.238281 52.640625 23.058594 52.398438 22.5 C 52.238281 22.121094 52.21875 22.121094 52.21875 22.539062 Z M 52.21875 22.539062 "/>
<path style=" stroke:none;fill-rule:nonzero;fill:red;fill-opacity:1;" d="M 38 22.71875 C 38 22.878906 38.101562 22.960938 38.199219 22.898438 C 38.320312 22.839844 38.398438 22.699219 38.398438 22.578125 C 38.398438 22.480469 38.320312 22.398438 38.199219 22.398438 C 38.101562 22.398438 38 22.539062 38 22.71875 Z M 38 22.71875 "/>
<path style=" stroke:none;fill-rule:nonzero;fill:red;fill-opacity:1;" d="M 69.699219 22.601562 C 69.78125 22.71875 69.921875 22.761719 70.019531 22.699219 C 70.300781 22.519531 70.238281 22.398438 69.878906 22.398438 C 69.71875 22.398438 69.640625 22.5 69.699219 22.601562 Z M 69.699219 22.601562 "/>
<path style=" stroke:none;fill-rule:nonzero;fill:red;fill-opacity:1;" d="M 80.921875 22.699219 C 81.058594 23.039062 81.800781 23.121094 81.800781 22.78125 C 81.800781 22.679688 81.71875 22.621094 81.621094 22.699219 C 81.519531 22.761719 81.378906 22.71875 81.300781 22.601562 C 81.101562 22.28125 80.800781 22.359375 80.921875 22.699219 Z M 80.921875 22.699219 "/>
<path style=" stroke:none;fill-rule:nonzero;fill:red;fill-opacity:1;" d="M 51.101562 23 C 51.039062 23.101562 51.078125 23.199219 51.179688 23.199219 C 51.300781 23.199219 51.398438 23.101562 51.398438 23 C 51.398438 22.878906 51.359375 22.800781 51.320312 22.800781 C 51.261719 22.800781 51.160156 22.878906 51.101562 23 Z M 51.101562 23 "/>
<path style=" stroke:none;fill-rule:nonzero;fill:red;fill-opacity:1;" d="M 75.398438 24 C 75.398438 24.261719 75.5 24.359375 75.699219 24.28125 C 75.941406 24.179688 75.960938 24.078125 75.78125 23.878906 C 75.480469 23.5 75.398438 23.519531 75.398438 24 Z M 75.398438 24 "/>
<path style=" stroke:none;fill-rule:nonzero;fill:red;fill-opacity:1;" d="M 29.199219 24.101562 C 29.199219 24.261719 29.238281 24.398438 29.28125 24.398438 C 29.320312 24.398438 29.398438 24.261719 29.480469 24.101562 C 29.539062 23.941406 29.5 23.800781 29.398438 23.800781 C 29.28125 23.800781 29.199219 23.941406 29.199219 24.101562 Z M 29.199219 24.101562 "/>
<path style=" stroke:none;fill-rule:nonzero;fill:red;fill-opacity:1;" d="M 74.199219 23.878906 C 74.199219 23.921875 74.339844 24.019531 74.519531 24.078125 C 74.679688 24.140625 74.761719 24.121094 74.699219 24 C 74.578125 23.800781 74.199219 23.71875 74.199219 23.878906 Z M 74.199219 23.878906 "/>
<path style=" stroke:none;fill-rule:nonzero;fill:red;fill-opacity:1;" d="M 48.941406 24.421875 C 49.078125 24.558594 49.238281 24.621094 49.300781 24.558594 C 49.359375 24.5 49.261719 24.378906 49.058594 24.320312 C 48.78125 24.199219 48.761719 24.21875 48.941406 24.421875 Z M 48.941406 24.421875 "/>
<path style=" stroke:none;fill-rule:nonzero;fill:red;fill-opacity:1;" d="M 55.398438 24.441406 C 55.398438 24.800781 55.761719 25.121094 55.960938 24.921875 C 56.019531 24.839844 55.921875 24.640625 55.738281 24.460938 C 55.421875 24.140625 55.398438 24.140625 55.398438 24.441406 Z M 55.398438 24.441406 "/>
<path style=" stroke:none;fill-rule:nonzero;fill:red;fill-opacity:1;" d="M 54.121094 24.738281 C 53.960938 25.140625 53.960938 25.121094 54.359375 25.121094 C 54.539062 25.140625 54.859375 25.199219 55.058594 25.300781 C 55.300781 25.398438 55.398438 25.359375 55.398438 25.140625 C 55.398438 24.859375 55.039062 24.621094 54.460938 24.480469 C 54.339844 24.460938 54.179688 24.578125 54.121094 24.738281 Z M 54.121094 24.738281 "/>
<path style=" stroke:none;fill-rule:nonzero;fill:red;fill-opacity:1;" d="M 57.601562 24.800781 C 57.601562 24.898438 57.699219 25 57.820312 25 C 57.921875 25 57.960938 24.898438 57.898438 24.800781 C 57.839844 24.679688 57.738281 24.601562 57.679688 24.601562 C 57.640625 24.601562 57.601562 24.679688 57.601562 24.800781 Z M 57.601562 24.800781 "/>
<path style=" stroke:none;fill-rule:nonzero;fill:red;fill-opacity:1;" d="M 79.300781 26 C 79.359375 26.101562 79.460938 26.199219 79.519531 26.199219 C 79.558594 26.199219 79.601562 26.101562 79.601562 26 C 79.601562 25.878906 79.5 25.800781 79.378906 25.800781 C 79.28125 25.800781 79.238281 25.878906 79.300781 26 Z M 79.300781 26 "/>
<path style=" stroke:none;fill-rule:nonzero;fill:red;fill-opacity:1;" d="M 70.039062 26.71875 C 70.238281 26.921875 70.441406 27.039062 70.480469 26.980469 C 70.539062 26.921875 70.378906 26.761719 70.140625 26.621094 C 69.71875 26.359375 69.71875 26.378906 70.039062 26.71875 Z M 70.039062 26.71875 "/>
<path style=" stroke:none;fill-rule:nonzero;fill:red;fill-opacity:1;" d="M 71.601562 27.578125 C 71.601562 27.699219 71.699219 27.839844 71.800781 27.898438 C 71.921875 27.960938 72 27.878906 72 27.71875 C 72 27.539062 71.921875 27.398438 71.800781 27.398438 C 71.699219 27.398438 71.601562 27.480469 71.601562 27.578125 Z M 71.601562 27.578125 "/>
<path style=" stroke:none;fill-rule:nonzero;fill:red;fill-opacity:1;" d="M 30.921875 27.941406 C 30.800781 28.21875 30.820312 28.238281 31.019531 28.058594 C 31.160156 27.921875 31.21875 27.761719 31.160156 27.699219 C 31.101562 27.640625 30.980469 27.738281 30.921875 27.941406 Z M 30.921875 27.941406 "/>
<path style=" stroke:none;fill-rule:nonzero;fill:red;fill-opacity:1;" d="M 74.421875 28.121094 C 74.421875 28.339844 74.480469 28.398438 74.539062 28.238281 C 74.601562 28.101562 74.578125 27.921875 74.519531 27.859375 C 74.460938 27.78125 74.398438 27.898438 74.421875 28.121094 Z M 74.421875 28.121094 "/>
<path style=" stroke:none;fill-rule:nonzero;fill:red;fill-opacity:1;" d="M 75.398438 28.601562 C 75.398438 28.699219 75.5 28.800781 75.601562 28.800781 C 75.71875 28.800781 75.800781 28.699219 75.800781 28.601562 C 75.800781 28.480469 75.71875 28.398438 75.601562 28.398438 C 75.5 28.398438 75.398438 28.480469 75.398438 28.601562 Z M 75.398438 28.601562 "/>
<path style=" stroke:none;fill-rule:nonzero;fill:red;fill-opacity:1;" d="M 82 28.761719 C 82 29 82.378906 29.28125 82.519531 29.140625 C 82.558594 29.101562 82.480469 28.941406 82.300781 28.800781 C 82.121094 28.640625 82 28.640625 82 28.761719 Z M 82 28.761719 "/>
<path style=" stroke:none;fill-rule:nonzero;fill:red;fill-opacity:1;" d="M 80.300781 31.199219 C 80.238281 31.300781 80.28125 31.398438 80.378906 31.398438 C 80.5 31.398438 80.601562 31.300781 80.601562 31.199219 C 80.601562 31.078125 80.558594 31 80.519531 31 C 80.460938 31 80.359375 31.078125 80.300781 31.199219 Z M 80.300781 31.199219 "/>
<path style=" stroke:none;fill-rule:nonzero;fill:red;fill-opacity:1;" d="M 23 28.800781 C 23 28.898438 23.101562 29 23.199219 29 C 23.320312 29 23.398438 28.898438 23.398438 28.800781 C 23.398438 28.679688 23.320312 28.601562 23.199219 28.601562 C 23.101562 28.601562 23 28.679688 23 28.800781 Z M 23 28.800781 "/>
<path style=" stroke:none;fill-rule:nonzero;fill:red;fill-opacity:1;" d="M 19.398438 30.878906 C 19.398438 31.238281 19.859375 31.421875 20.21875 31.199219 C 20.539062 31 20.339844 30.738281 19.800781 30.660156 C 19.558594 30.621094 19.398438 30.71875 19.398438 30.878906 Z M 19.398438 30.878906 "/>
<path style=" stroke:none;fill-rule:nonzero;fill:red;fill-opacity:1;" d="M 26 41.601562 C 26 41.699219 26.140625 41.800781 26.300781 41.800781 C 26.460938 41.800781 26.601562 41.699219 26.601562 41.601562 C 26.601562 41.480469 26.460938 41.398438 26.300781 41.398438 C 26.140625 41.398438 26 41.480469 26 41.601562 Z M 26 41.601562 "/>
<path style=" stroke:none;fill-rule:nonzero;fill:red;fill-opacity:1;" d="M 25.800781 44.460938 C 25.800781 44.621094 25.941406 44.738281 26.101562 44.738281 C 26.320312 44.738281 26.339844 44.660156 26.179688 44.460938 C 26.058594 44.320312 25.921875 44.199219 25.878906 44.199219 C 25.839844 44.199219 25.800781 44.320312 25.800781 44.460938 Z M 25.800781 44.460938 "/>
<path style=" stroke:none;fill-rule:nonzero;fill:red;fill-opacity:1;" d="M 27 47.578125 C 27 47.679688 27.101562 47.839844 27.199219 47.898438 C 27.320312 47.960938 27.398438 47.941406 27.398438 47.820312 C 27.398438 47.71875 27.320312 47.558594 27.199219 47.5 C 27.101562 47.441406 27 47.460938 27 47.578125 Z M 27 47.578125 "/>
<path style=" stroke:none;fill-rule:nonzero;fill:red;fill-opacity:1;" d="M 27.101562 48.398438 C 27.039062 48.5 27.121094 48.601562 27.28125 48.601562 C 27.460938 48.601562 27.601562 48.5 27.601562 48.398438 C 27.601562 48.28125 27.519531 48.199219 27.421875 48.199219 C 27.300781 48.199219 27.160156 48.28125 27.101562 48.398438 Z M 27.101562 48.398438 "/>
<path style=" stroke:none;fill-rule:nonzero;fill:red;fill-opacity:1;" d="M 40.101562 29.800781 C 40.039062 29.898438 40.078125 30 40.179688 30 C 40.300781 30 40.398438 29.898438 40.398438 29.800781 C 40.398438 29.679688 40.359375 29.601562 40.320312 29.601562 C 40.261719 29.601562 40.160156 29.679688 40.101562 29.800781 Z M 40.101562 29.800781 "/>
<path style=" stroke:none;fill-rule:nonzero;fill:red;fill-opacity:1;" d="M 38.140625 29.941406 C 38.058594 30 38 30.160156 38 30.28125 C 38 30.398438 38.101562 30.378906 38.238281 30.238281 C 38.359375 30.121094 38.421875 29.960938 38.378906 29.898438 C 38.320312 29.839844 38.199219 29.859375 38.140625 29.941406 Z M 38.140625 29.941406 "/>
<path style=" stroke:none;fill-rule:nonzero;fill:red;fill-opacity:1;" d="M 35.421875 32.320312 C 35.421875 32.539062 35.480469 32.601562 35.539062 32.441406 C 35.601562 32.300781 35.578125 32.121094 35.519531 32.058594 C 35.460938 31.980469 35.398438 32.101562 35.421875 32.320312 Z M 35.421875 32.320312 "/>
<path style=" stroke:none;fill-rule:nonzero;fill:red;fill-opacity:1;" d="M 52.421875 29.921875 C 52.421875 30.140625 52.480469 30.199219 52.539062 30.039062 C 52.601562 29.898438 52.578125 29.71875 52.519531 29.660156 C 52.460938 29.578125 52.398438 29.699219 52.421875 29.921875 Z M 52.421875 29.921875 "/>
<path style=" stroke:none;fill-rule:nonzero;fill:red;fill-opacity:1;" d="M 64.300781 36.140625 C 63.160156 36.980469 62.660156 37.800781 62.5 39.078125 C 62.339844 40.320312 62.820312 41.738281 63.480469 42 C 64.378906 42.339844 66.300781 41.679688 67.121094 40.761719 C 67.980469 39.800781 68.199219 39.21875 68.199219 38.058594 C 68.199219 37.019531 68.039062 36.519531 67.460938 35.800781 C 67.421875 35.761719 66.898438 35.660156 66.300781 35.601562 C 65.300781 35.5 65.160156 35.539062 64.300781 36.140625 Z M 66.761719 37.820312 C 66.859375 38.941406 66.359375 39.878906 65.460938 40.300781 C 64.378906 40.820312 63.921875 40.640625 63.839844 39.71875 C 63.71875 38.339844 64.539062 37.179688 65.800781 36.941406 C 66.601562 36.800781 66.699219 36.878906 66.761719 37.820312 Z M 66.761719 37.820312 "/>
<path style=" stroke:none;fill-rule:nonzero;fill:red;fill-opacity:1;" d="M 75.121094 35.980469 C 75.039062 36.121094 75.019531 36.28125 75.078125 36.339844 C 75.261719 36.519531 75.460938 36.261719 75.359375 35.980469 C 75.28125 35.761719 75.238281 35.761719 75.121094 35.980469 Z M 75.121094 35.980469 "/>
<path style=" stroke:none;fill-rule:nonzero;fill:red;fill-opacity:1;" d="M 73.300781 37.601562 C 73.359375 37.699219 73.460938 37.800781 73.519531 37.800781 C 73.558594 37.800781 73.601562 37.699219 73.601562 37.601562 C 73.601562 37.480469 73.5 37.398438 73.378906 37.398438 C 73.28125 37.398438 73.238281 37.480469 73.300781 37.601562 Z M 73.300781 37.601562 "/>
<path style=" stroke:none;fill-rule:nonzero;fill:red;fill-opacity:1;" d="M 79.820312 38.320312 C 79.820312 38.539062 79.878906 38.601562 79.941406 38.441406 C 80 38.300781 79.980469 38.121094 79.921875 38.058594 C 79.859375 37.980469 79.800781 38.101562 79.820312 38.320312 Z M 79.820312 38.320312 "/>
<path style=" stroke:none;fill-rule:nonzero;fill:red;fill-opacity:1;" d="M 56.101562 38.621094 C 55.921875 38.898438 56.058594 39.019531 56.378906 38.820312 C 56.539062 38.699219 56.558594 38.601562 56.441406 38.519531 C 56.320312 38.460938 56.160156 38.5 56.101562 38.621094 Z M 56.101562 38.621094 "/>
<path style=" stroke:none;fill-rule:nonzero;fill:red;fill-opacity:1;" d="M 33.320312 39.179688 C 33.238281 39.320312 33.21875 39.480469 33.28125 39.539062 C 33.460938 39.71875 33.660156 39.460938 33.558594 39.179688 C 33.480469 38.960938 33.441406 38.960938 33.320312 39.179688 Z M 33.320312 39.179688 "/>
<path style=" stroke:none;fill-rule:nonzero;fill:red;fill-opacity:1;" d="M 49.921875 39.820312 C 49.5 40.21875 49.738281 40.320312 50.460938 40.019531 C 50.78125 39.898438 50.78125 39.839844 50.558594 39.660156 C 50.359375 39.5 50.199219 39.539062 49.921875 39.820312 Z M 49.921875 39.820312 "/>
<path style=" stroke:none;fill-rule:nonzero;fill:red;fill-opacity:1;" d="M 60.800781 40.421875 C 60.800781 40.519531 60.898438 40.558594 61 40.5 C 61.121094 40.441406 61.199219 40.339844 61.199219 40.28125 C 61.199219 40.238281 61.121094 40.199219 61 40.199219 C 60.898438 40.199219 60.800781 40.300781 60.800781 40.421875 Z M 60.800781 40.421875 "/>
<path style=" stroke:none;fill-rule:nonzero;fill:red;fill-opacity:1;" d="M 39.058594 41.78125 C 38.800781 42 38.601562 42.261719 38.601562 42.378906 C 38.601562 42.5 38.519531 42.601562 38.421875 42.601562 C 38.058594 42.601562 37.601562 44.679688 37.71875 45.699219 C 38.039062 48.039062 39.398438 49.558594 41.78125 50.199219 C 42.621094 50.421875 42.660156 50.421875 43.339844 49.78125 C 44.539062 48.601562 44.941406 46.21875 44.199219 44.519531 C 43.199219 42.140625 40.398438 40.660156 39.058594 41.78125 Z M 40.960938 43.019531 C 41 43.121094 41.140625 43.199219 41.261719 43.199219 C 41.621094 43.21875 42.320312 43.859375 42.78125 44.621094 C 43.339844 45.519531 43.339844 47.140625 42.800781 48.199219 C 42.421875 48.960938 42.378906 48.980469 41.761719 48.761719 C 40.480469 48.320312 39.421875 47.28125 39.339844 46.378906 C 39.320312 46.179688 39.238281 46 39.121094 46 C 38.800781 46 39.160156 44 39.621094 43.28125 C 39.960938 42.71875 40.121094 42.621094 40.480469 42.71875 C 40.699219 42.800781 40.941406 42.941406 40.960938 43.019531 Z M 40.960938 43.019531 "/>
<path style=" stroke:none;fill-rule:nonzero;fill:red;fill-opacity:1;" d="M 35.101562 42.398438 C 35.160156 42.5 35.261719 42.601562 35.320312 42.601562 C 35.359375 42.601562 35.398438 42.5 35.398438 42.398438 C 35.398438 42.28125 35.300781 42.199219 35.179688 42.199219 C 35.078125 42.199219 35.039062 42.28125 35.101562 42.398438 Z M 35.101562 42.398438 "/>
<path style=" stroke:none;fill-rule:nonzero;fill:red;fill-opacity:1;" d="M 51.300781 42.980469 C 51.238281 43.078125 51.28125 43.21875 51.398438 43.300781 C 51.5 43.359375 51.601562 43.28125 51.601562 43.121094 C 51.601562 42.761719 51.480469 42.699219 51.300781 42.980469 Z M 51.300781 42.980469 "/>
<path style=" stroke:none;fill-rule:nonzero;fill:red;fill-opacity:1;" d="M 44.320312 43.300781 C 44.261719 43.460938 44.300781 43.601562 44.398438 43.601562 C 44.519531 43.601562 44.601562 43.460938 44.601562 43.300781 C 44.601562 43.140625 44.558594 43 44.519531 43 C 44.480469 43 44.398438 43.140625 44.320312 43.300781 Z M 44.320312 43.300781 "/>
<path style=" stroke:none;fill-rule:nonzero;fill:red;fill-opacity:1;" d="M 53.800781 44.640625 C 53.421875 44.738281 52.878906 44.878906 52.601562 44.941406 C 51.441406 45.21875 49.421875 46.878906 48.28125 48.5 C 46.640625 50.878906 47.058594 55.859375 49.078125 58 C 50.558594 59.578125 52.761719 60.800781 54.101562 60.800781 C 54.359375 60.800781 54.601562 60.878906 54.640625 60.980469 C 54.679688 61.058594 55.28125 61.078125 56 60.980469 C 56.699219 60.898438 57.359375 60.878906 57.441406 60.921875 C 57.539062 60.980469 57.601562 60.921875 57.601562 60.820312 C 57.601562 60.699219 57.738281 60.601562 57.898438 60.601562 C 58.480469 60.601562 60.199219 59.601562 61.078125 58.738281 C 62.699219 57.160156 63.5 55.480469 63.679688 53.21875 C 63.941406 50.28125 62.421875 47.320312 59.878906 45.738281 C 58.101562 44.640625 55.519531 44.160156 53.800781 44.640625 Z M 58.101562 46.921875 C 62.21875 48.859375 63.160156 54.039062 59.941406 57.160156 C 59.300781 57.78125 58.960938 57.980469 58.679688 57.878906 C 58.441406 57.800781 58.378906 57.820312 58.539062 57.941406 C 59.101562 58.339844 55.960938 59.320312 54.839844 59.078125 C 52.960938 58.699219 52.21875 58.339844 51.199219 57.339844 C 50.621094 56.761719 49.921875 55.839844 49.679688 55.300781 C 49.238281 54.359375 48.921875 52.539062 49.140625 52.320312 C 49.199219 52.261719 49.28125 51.859375 49.300781 51.421875 C 49.378906 50.378906 50.300781 48.71875 51.179688 47.980469 C 53.261719 46.261719 55.878906 45.859375 58.101562 46.921875 Z M 58.101562 46.921875 "/>
<path style=" stroke:none;fill-rule:nonzero;fill:red;fill-opacity:1;" d="M 52.300781 49 C 52.359375 49.101562 52.460938 49.199219 52.519531 49.199219 C 52.558594 49.199219 52.601562 49.101562 52.601562 49 C 52.601562 48.878906 52.5 48.800781 52.378906 48.800781 C 52.28125 48.800781 52.238281 48.878906 52.300781 49 Z M 52.300781 49 "/>
<path style=" stroke:none;fill-rule:nonzero;fill:red;fill-opacity:1;" d="M 51.800781 50.480469 C 51.800781 50.519531 51.941406 50.660156 52.101562 50.800781 C 52.339844 51 52.398438 51 52.398438 50.71875 C 52.398438 50.539062 52.261719 50.398438 52.101562 50.398438 C 51.941406 50.398438 51.800781 50.441406 51.800781 50.480469 Z M 51.800781 50.480469 "/>
<path style=" stroke:none;fill-rule:nonzero;fill:red;fill-opacity:1;" d="M 52.5 51.199219 C 52.441406 51.300781 52.480469 51.398438 52.578125 51.398438 C 52.699219 51.398438 52.800781 51.300781 52.800781 51.199219 C 52.800781 51.078125 52.761719 51 52.71875 51 C 52.660156 51 52.558594 51.078125 52.5 51.199219 Z M 52.5 51.199219 "/>
<path style=" stroke:none;fill-rule:nonzero;fill:red;fill-opacity:1;" d="M 53.800781 52.578125 C 53.800781 52.679688 53.898438 52.839844 54 52.898438 C 54.121094 52.960938 54.199219 52.941406 54.199219 52.820312 C 54.199219 52.71875 54.121094 52.558594 54 52.5 C 53.898438 52.441406 53.800781 52.460938 53.800781 52.578125 Z M 53.800781 52.578125 "/>
<path style=" stroke:none;fill-rule:nonzero;fill:red;fill-opacity:1;" d="M 49.699219 54 C 49.640625 54.101562 49.679688 54.199219 49.78125 54.199219 C 49.898438 54.199219 50 54.101562 50 54 C 50 53.878906 49.960938 53.800781 49.921875 53.800781 C 49.859375 53.800781 49.761719 53.878906 49.699219 54 Z M 49.699219 54 "/>
<path style=" stroke:none;fill-rule:nonzero;fill:red;fill-opacity:1;" d="M 57.921875 54.898438 C 58 55.058594 58.078125 55.199219 58.121094 55.199219 C 58.160156 55.199219 58.199219 55.058594 58.199219 54.898438 C 58.199219 54.738281 58.121094 54.601562 58 54.601562 C 57.898438 54.601562 57.859375 54.738281 57.921875 54.898438 Z M 57.921875 54.898438 "/>
<path style=" stroke:none;fill-rule:nonzero;fill:red;fill-opacity:1;" d="M 58.441406 55 C 58.441406 55.28125 58.480469 55.378906 58.539062 55.238281 C 58.578125 55.121094 58.578125 54.878906 58.539062 54.738281 C 58.480469 54.621094 58.441406 54.71875 58.441406 55 Z M 58.441406 55 "/>
<path style=" stroke:none;fill-rule:nonzero;fill:red;fill-opacity:1;" d="M 45.398438 47 C 45.398438 47.101562 45.5 47.199219 45.621094 47.199219 C 45.71875 47.199219 45.761719 47.101562 45.699219 47 C 45.640625 46.878906 45.539062 46.800781 45.480469 46.800781 C 45.441406 46.800781 45.398438 46.878906 45.398438 47 Z M 45.398438 47 "/>
<path style=" stroke:none;fill-rule:nonzero;fill:red;fill-opacity:1;" d="M 43.019531 51.519531 C 43.019531 51.738281 43.078125 51.800781 43.140625 51.640625 C 43.199219 51.5 43.179688 51.320312 43.121094 51.261719 C 43.058594 51.179688 43 51.300781 43.019531 51.519531 Z M 43.019531 51.519531 "/>
<path style=" stroke:none;fill-rule:nonzero;fill:red;fill-opacity:1;" d="M 30.199219 51.820312 C 30.199219 51.921875 30.300781 51.960938 30.398438 51.898438 C 30.519531 51.839844 30.601562 51.738281 30.601562 51.679688 C 30.601562 51.640625 30.519531 51.601562 30.398438 51.601562 C 30.300781 51.601562 30.199219 51.699219 30.199219 51.820312 Z M 30.199219 51.820312 "/>
<path style=" stroke:none;fill-rule:nonzero;fill:red;fill-opacity:1;" d="M 40.121094 51.898438 C 40.058594 52.078125 40.121094 52.199219 40.300781 52.199219 C 40.460938 52.199219 40.601562 52.058594 40.601562 51.898438 C 40.601562 51.738281 40.519531 51.601562 40.421875 51.601562 C 40.320312 51.601562 40.199219 51.738281 40.121094 51.898438 Z M 40.121094 51.898438 "/>
<path style=" stroke:none;fill-rule:nonzero;fill:red;fill-opacity:1;" d="M 41.71875 52.101562 C 41.800781 52.261719 41.878906 52.398438 41.921875 52.398438 C 41.960938 52.398438 42 52.261719 42 52.101562 C 42 51.941406 41.921875 51.800781 41.800781 51.800781 C 41.699219 51.800781 41.660156 51.941406 41.71875 52.101562 Z M 41.71875 52.101562 "/>
<path style=" stroke:none;fill-rule:nonzero;fill:red;fill-opacity:1;" d="M 44.601562 52.101562 C 44.601562 52.28125 44.71875 52.339844 44.898438 52.28125 C 45.058594 52.199219 45.140625 52.078125 45.078125 51.980469 C 44.921875 51.699219 44.601562 51.78125 44.601562 52.101562 Z M 44.601562 52.101562 "/>
<path style=" stroke:none;fill-rule:nonzero;fill:red;fill-opacity:1;" d="M 41.179688 52.441406 C 41.058594 52.859375 41.078125 53.199219 41.21875 53.199219 C 41.320312 53.199219 41.398438 53.019531 41.398438 52.800781 C 41.398438 52.480469 41.261719 52.238281 41.179688 52.441406 Z M 41.179688 52.441406 "/>
<path style=" stroke:none;fill-rule:nonzero;fill:red;fill-opacity:1;" d="M 32.519531 53.359375 C 32.640625 53.441406 32.800781 53.640625 32.859375 53.800781 C 32.941406 54 32.980469 53.960938 32.980469 53.640625 C 33 53.339844 32.878906 53.199219 32.660156 53.199219 C 32.441406 53.199219 32.378906 53.261719 32.519531 53.359375 Z M 32.519531 53.359375 "/>
<path style=" stroke:none;fill-rule:nonzero;fill:red;fill-opacity:1;" d="M 41.679688 53.421875 C 41.621094 53.539062 41.640625 53.71875 41.761719 53.839844 C 41.898438 53.980469 42.039062 53.898438 42.179688 53.621094 C 42.378906 53.28125 42.359375 53.199219 42.121094 53.199219 C 41.960938 53.199219 41.761719 53.300781 41.679688 53.421875 Z M 41.679688 53.421875 "/>
<path style=" stroke:none;fill-rule:nonzero;fill:red;fill-opacity:1;" d="M 41 54.101562 C 40.78125 54.359375 40.800781 54.378906 41.078125 54.28125 C 41.261719 54.21875 41.398438 54.078125 41.398438 53.980469 C 41.398438 53.71875 41.28125 53.761719 41 54.101562 Z M 41 54.101562 "/>
<path style=" stroke:none;fill-rule:nonzero;fill:red;fill-opacity:1;" d="M 34.5 55 C 34.558594 55.101562 34.660156 55.199219 34.71875 55.199219 C 34.761719 55.199219 34.800781 55.101562 34.800781 55 C 34.800781 54.878906 34.699219 54.800781 34.578125 54.800781 C 34.480469 54.800781 34.441406 54.878906 34.5 55 Z M 34.5 55 "/>
<path style=" stroke:none;fill-rule:nonzero;fill:red;fill-opacity:1;" d="M 70.398438 55.019531 C 70.398438 55.121094 70.5 55.160156 70.601562 55.101562 C 70.71875 55.039062 70.800781 54.941406 70.800781 54.878906 C 70.800781 54.839844 70.71875 54.800781 70.601562 54.800781 C 70.5 54.800781 70.398438 54.898438 70.398438 55.019531 Z M 70.398438 55.019531 "/>
<path style=" stroke:none;fill-rule:nonzero;fill:red;fill-opacity:1;" d="M 66.601562 56.199219 C 66.601562 56.300781 66.699219 56.398438 66.800781 56.398438 C 66.921875 56.398438 67 56.300781 67 56.199219 C 67 56.078125 66.921875 56 66.800781 56 C 66.699219 56 66.601562 56.078125 66.601562 56.199219 Z M 66.601562 56.199219 "/>
<path style=" stroke:none;fill-rule:nonzero;fill:red;fill-opacity:1;" d="M 42.898438 56.601562 C 42.839844 56.699219 42.878906 56.800781 42.980469 56.800781 C 43.101562 56.800781 43.199219 56.699219 43.199219 56.601562 C 43.199219 56.480469 43.160156 56.398438 43.121094 56.398438 C 43.058594 56.398438 42.960938 56.480469 42.898438 56.601562 Z M 42.898438 56.601562 "/>
<path style=" stroke:none;fill-rule:nonzero;fill:red;fill-opacity:1;" d="M 30.800781 56.898438 C 30.421875 57.339844 30.300781 60.601562 30.601562 61.738281 C 31.179688 63.898438 31.980469 65.398438 32.539062 65.398438 C 32.878906 65.398438 33.21875 64.578125 33 64.300781 C 32.921875 64.179688 32.601562 63.378906 32.320312 62.5 C 31.78125 60.898438 31.621094 58.921875 31.898438 57.738281 C 32.140625 56.839844 31.339844 56.238281 30.800781 56.898438 Z M 30.800781 56.898438 "/>
<path style=" stroke:none;fill-rule:nonzero;fill:red;fill-opacity:1;" d="M 45.101562 57.398438 C 45.039062 57.5 45.121094 57.601562 45.28125 57.601562 C 45.441406 57.601562 45.640625 57.5 45.699219 57.398438 C 45.761719 57.28125 45.679688 57.199219 45.519531 57.199219 C 45.359375 57.199219 45.160156 57.28125 45.101562 57.398438 Z M 45.101562 57.398438 "/>
<path style=" stroke:none;fill-rule:nonzero;fill:red;fill-opacity:1;" d="M 32.699219 58 C 32.640625 58.121094 32.71875 58.140625 32.878906 58.078125 C 33.238281 57.941406 33.300781 57.800781 33.019531 57.800781 C 32.898438 57.800781 32.761719 57.878906 32.699219 58 Z M 32.699219 58 "/>
<path style=" stroke:none;fill-rule:nonzero;fill:red;fill-opacity:1;" d="M 65.960938 60.140625 C 66.101562 60.199219 66.28125 60.179688 66.339844 60.121094 C 66.421875 60.058594 66.300781 60 66.078125 60.019531 C 65.859375 60.019531 65.800781 60.078125 65.960938 60.140625 Z M 65.960938 60.140625 "/>
<path style=" stroke:none;fill-rule:nonzero;fill:red;fill-opacity:1;" d="M 34.359375 60.640625 C 34.539062 60.820312 34.660156 60.820312 34.839844 60.640625 C 35.019531 60.460938 34.980469 60.398438 34.601562 60.398438 C 34.21875 60.398438 34.179688 60.460938 34.359375 60.640625 Z M 34.359375 60.640625 "/>
<path style=" stroke:none;fill-rule:nonzero;fill:red;fill-opacity:1;" d="M 37.761719 61.140625 C 37.859375 61.558594 37.898438 61.601562 37.960938 61.320312 C 38 61.121094 37.960938 60.878906 37.839844 60.761719 C 37.71875 60.640625 37.699219 60.761719 37.761719 61.140625 Z M 37.761719 61.140625 "/>
<path style=" stroke:none;fill-rule:nonzero;fill:red;fill-opacity:1;" d="M 67.300781 61.199219 C 67.238281 61.300781 67.28125 61.398438 67.378906 61.398438 C 67.5 61.398438 67.601562 61.300781 67.601562 61.199219 C 67.601562 61.078125 67.558594 61 67.519531 61 C 67.460938 61 67.359375 61.078125 67.300781 61.199219 Z M 67.300781 61.199219 "/>
<path style=" stroke:none;fill-rule:nonzero;fill:red;fill-opacity:1;" d="M 65.699219 62.199219 C 65.640625 62.300781 65.71875 62.398438 65.898438 62.398438 C 66.078125 62.398438 66.160156 62.300781 66.101562 62.199219 C 66.039062 62.078125 65.941406 62 65.898438 62 C 65.859375 62 65.761719 62.078125 65.699219 62.199219 Z M 65.699219 62.199219 "/>
<path style=" stroke:none;fill-rule:nonzero;fill:red;fill-opacity:1;" d="M 64.320312 63.699219 C 64.238281 63.941406 64.300781 64.019531 64.539062 63.960938 C 64.898438 63.898438 64.960938 63.558594 64.640625 63.441406 C 64.539062 63.421875 64.398438 63.519531 64.320312 63.699219 Z M 64.320312 63.699219 "/>
<path style=" stroke:none;fill-rule:nonzero;fill:red;fill-opacity:1;" d="M 56.300781 64.078125 C 55.679688 64.359375 54.320312 65.460938 54.28125 65.738281 C 54.179688 66.339844 53.921875 66.800781 53.660156 66.800781 C 53.5 66.800781 53.421875 66.878906 53.5 66.980469 C 53.558594 67.078125 53.5 67.238281 53.398438 67.300781 C 53.261719 67.398438 53.300781 67.519531 53.519531 67.679688 C 53.761719 67.859375 53.820312 68.121094 53.761719 68.558594 C 53.71875 68.921875 53.738281 69.199219 53.820312 69.199219 C 53.921875 69.199219 53.921875 69.339844 53.859375 69.539062 C 53.78125 69.71875 53.820312 69.820312 53.921875 69.761719 C 54.019531 69.699219 54.320312 69.980469 54.578125 70.398438 C 54.839844 70.820312 55.339844 71.320312 55.699219 71.5 C 56.300781 71.839844 56.359375 71.820312 57.121094 71.441406 C 58.621094 70.679688 59.601562 69.101562 59.601562 67.480469 C 59.601562 66.179688 58.660156 64.300781 57.878906 64.019531 C 57.121094 63.738281 57.039062 63.761719 56.300781 64.078125 Z M 57.28125 65.320312 C 57.460938 65.378906 57.601562 65.558594 57.601562 65.699219 C 57.601562 65.839844 57.71875 66 57.859375 66.039062 C 58.019531 66.101562 58.101562 66.558594 58.101562 67.421875 C 58.101562 68.820312 57.621094 69.738281 56.679688 70.179688 C 56.261719 70.359375 56.160156 70.320312 55.699219 69.640625 C 54.859375 68.398438 55.21875 66.199219 56.359375 65.699219 C 56.601562 65.601562 56.800781 65.441406 56.800781 65.359375 C 56.800781 65.160156 56.878906 65.160156 57.28125 65.320312 Z M 57.28125 65.320312 "/>
<path style=" stroke:none;fill-rule:nonzero;fill:red;fill-opacity:1;" d="M 56.339844 67.21875 C 56.480469 67.359375 56.640625 67.421875 56.699219 67.359375 C 56.761719 67.300781 56.660156 67.179688 56.460938 67.121094 C 56.179688 67 56.160156 67.019531 56.339844 67.21875 Z M 56.339844 67.21875 "/>
<path style=" stroke:none;fill-rule:nonzero;fill:red;fill-opacity:1;" d="M 59.898438 65.980469 C 59.839844 66.078125 59.878906 66.21875 60 66.300781 C 60.101562 66.359375 60.199219 66.28125 60.199219 66.121094 C 60.199219 65.761719 60.078125 65.699219 59.898438 65.980469 Z M 59.898438 65.980469 "/>
<path style=" stroke:none;fill-rule:nonzero;fill:red;fill-opacity:1;" d="M 33.5 66.941406 C 33.28125 67 32.980469 67.179688 32.859375 67.359375 C 32.640625 67.621094 32.660156 67.738281 32.941406 68.039062 C 33.378906 68.519531 33.78125 68.5 33.878906 67.941406 C 33.960938 67.578125 33.980469 66.738281 33.921875 66.820312 C 33.898438 66.839844 33.71875 66.878906 33.5 66.941406 Z M 33.5 66.941406 "/>
<path style=" stroke:none;fill-rule:nonzero;fill:red;fill-opacity:1;" d="M 60.539062 66.941406 C 60.460938 67 60.398438 67.160156 60.398438 67.28125 C 60.398438 67.398438 60.5 67.378906 60.640625 67.238281 C 60.761719 67.121094 60.820312 66.960938 60.78125 66.898438 C 60.71875 66.839844 60.601562 66.859375 60.539062 66.941406 Z M 60.539062 66.941406 "/>
<path style=" stroke:none;fill-rule:nonzero;fill:red;fill-opacity:1;" d="M 52.898438 68.601562 C 52.960938 68.699219 53.058594 68.800781 53.121094 68.800781 C 53.160156 68.800781 53.199219 68.699219 53.199219 68.601562 C 53.199219 68.480469 53.101562 68.398438 52.980469 68.398438 C 52.878906 68.398438 52.839844 68.480469 52.898438 68.601562 Z M 52.898438 68.601562 "/>
<path style=" stroke:none;fill-rule:nonzero;fill:red;fill-opacity:1;" d="M 60.601562 70.019531 C 60.601562 70.121094 60.699219 70.160156 60.800781 70.101562 C 60.921875 70.039062 61 69.941406 61 69.878906 C 61 69.839844 60.921875 69.800781 60.800781 69.800781 C 60.699219 69.800781 60.601562 69.898438 60.601562 70.019531 Z M 60.601562 70.019531 "/>
<path style=" stroke:none;fill-rule:nonzero;fill:red;fill-opacity:1;" d="M 60.898438 72 C 60.839844 72.101562 60.859375 72.199219 60.980469 72.199219 C 61.078125 72.199219 61.238281 72.101562 61.300781 72 C 61.359375 71.878906 61.339844 71.800781 61.21875 71.800781 C 61.121094 71.800781 60.960938 71.878906 60.898438 72 Z M 60.898438 72 "/>
<path style=" stroke:none;fill-rule:nonzero;fill:red;fill-opacity:1;" d="M 59.5 73 C 59.558594 73.101562 59.660156 73.199219 59.71875 73.199219 C 59.761719 73.199219 59.800781 73.101562 59.800781 73 C 59.800781 72.878906 59.699219 72.800781 59.578125 72.800781 C 59.480469 72.800781 59.441406 72.878906 59.5 73 Z M 59.5 73 "/>
<path style=" stroke:none;fill-rule:nonzero;fill:red;fill-opacity:1;" d="M 59.601562 75.28125 C 59.601562 75.460938 59.699219 75.601562 59.800781 75.601562 C 59.921875 75.601562 60 75.519531 60 75.421875 C 60 75.300781 59.921875 75.160156 59.800781 75.101562 C 59.699219 75.039062 59.601562 75.121094 59.601562 75.28125 Z M 59.601562 75.28125 "/>
<path style=" stroke:none;fill-rule:nonzero;fill:red;fill-opacity:1;" d="M 54.21875 77.640625 C 54.21875 77.898438 54.28125 77.980469 54.339844 77.839844 C 54.421875 77.640625 54.5 77.640625 54.71875 77.820312 C 55.058594 78.101562 55.101562 77.78125 54.761719 77.441406 C 54.398438 77.078125 54.199219 77.160156 54.21875 77.640625 Z M 54.21875 77.640625 "/>
<path style=" stroke:none;fill-rule:nonzero;fill:red;fill-opacity:1;" d="M 55.320312 77.660156 C 55.378906 77.859375 55.5 77.960938 55.558594 77.898438 C 55.621094 77.839844 55.558594 77.679688 55.421875 77.539062 C 55.21875 77.359375 55.199219 77.378906 55.320312 77.660156 Z M 55.320312 77.660156 "/>
<path style=" stroke:none;fill-rule:nonzero;fill:red;fill-opacity:1;" d="M 71.898438 44.601562 C 71.960938 44.699219 72.058594 44.800781 72.121094 44.800781 C 72.160156 44.800781 72.199219 44.699219 72.199219 44.601562 C 72.199219 44.480469 72.101562 44.398438 71.980469 44.398438 C 71.878906 44.398438 71.839844 44.480469 71.898438 44.601562 Z M 71.898438 44.601562 "/>
<path style=" stroke:none;fill-rule:nonzero;fill:red;fill-opacity:1;" d="M 43.101562 67.800781 C 43.039062 67.898438 43.078125 68 43.179688 68 C 43.300781 68 43.398438 67.898438 43.398438 67.800781 C 43.398438 67.679688 43.359375 67.601562 43.320312 67.601562 C 43.261719 67.601562 43.160156 67.679688 43.101562 67.800781 Z M 43.101562 67.800781 "/>
<path style=" stroke:none;fill-rule:nonzero;fill:red;fill-opacity:1;" d="M 44.640625 70.578125 C 44.679688 70.71875 44.78125 70.820312 44.859375 70.820312 C 45.101562 70.800781 45.039062 70.519531 44.800781 70.421875 C 44.660156 70.378906 44.578125 70.460938 44.640625 70.578125 Z M 44.640625 70.578125 "/>
<path style=" stroke:none;fill-rule:nonzero;fill:red;fill-opacity:1;" d="M 43.601562 71.378906 C 43.601562 71.5 43.679688 71.640625 43.800781 71.699219 C 43.921875 71.761719 43.941406 71.679688 43.878906 71.519531 C 43.738281 71.160156 43.601562 71.101562 43.601562 71.378906 Z M 43.601562 71.378906 "/>
<path style=" stroke:none;fill-rule:nonzero;fill:red;fill-opacity:1;" d="M 42.800781 73 C 42.800781 73.101562 42.941406 73.199219 43.121094 73.199219 C 43.28125 73.199219 43.359375 73.101562 43.300781 73 C 43.238281 72.878906 43.101562 72.800781 42.980469 72.800781 C 42.878906 72.800781 42.800781 72.878906 42.800781 73 Z M 42.800781 73 "/>
<path style=" stroke:none;fill-rule:nonzero;fill:red;fill-opacity:1;" d="M 45.199219 73.039062 C 45.199219 73.21875 45.300781 73.441406 45.398438 73.5 C 45.660156 73.660156 45.660156 73.398438 45.398438 73 C 45.238281 72.738281 45.199219 72.738281 45.199219 73.039062 Z M 45.199219 73.039062 "/>
<path style=" stroke:none;fill-rule:nonzero;fill:red;fill-opacity:1;" d="M 40.539062 73.398438 C 40.601562 73.621094 40.679688 73.800781 40.71875 73.800781 C 40.761719 73.800781 40.800781 73.621094 40.800781 73.398438 C 40.800781 73.179688 40.71875 73 40.621094 73 C 40.519531 73 40.480469 73.179688 40.539062 73.398438 Z M 40.539062 73.398438 "/>
<path style=" stroke:none;fill-rule:nonzero;fill:red;fill-opacity:1;" d="M 41.5 74 C 41.558594 74.101562 41.71875 74.199219 41.820312 74.199219 C 41.941406 74.199219 41.960938 74.101562 41.898438 74 C 41.839844 73.878906 41.679688 73.800781 41.578125 73.800781 C 41.460938 73.800781 41.441406 73.878906 41.5 74 Z M 41.5 74 "/>
<path style=" stroke:none;fill-rule:nonzero;fill:red;fill-opacity:1;" d="M 43.761719 74.578125 C 43.839844 74.800781 43.898438 74.800781 43.960938 74.640625 C 44.019531 74.441406 44.101562 74.441406 44.320312 74.621094 C 44.539062 74.800781 44.601562 74.78125 44.601562 74.558594 C 44.601562 74.398438 44.398438 74.28125 44.121094 74.28125 C 43.78125 74.28125 43.679688 74.359375 43.761719 74.578125 Z M 43.761719 74.578125 "/>
<path style=" stroke:none;fill-rule:nonzero;fill:red;fill-opacity:1;" d="M 45.019531 75.179688 C 44.859375 75.28125 44.839844 75.398438 44.960938 75.480469 C 45.058594 75.539062 45.199219 75.460938 45.28125 75.300781 C 45.398438 74.960938 45.398438 74.941406 45.019531 75.179688 Z M 45.019531 75.179688 "/>
<path style=" stroke:none;fill-rule:nonzero;fill:red;fill-opacity:1;" d="M 43.199219 76.21875 C 43.199219 76.320312 43.300781 76.359375 43.398438 76.300781 C 43.519531 76.238281 43.601562 76.140625 43.601562 76.078125 C 43.601562 76.039062 43.519531 76 43.398438 76 C 43.300781 76 43.199219 76.101562 43.199219 76.21875 Z M 43.199219 76.21875 "/>
<path style=" stroke:none;fill-rule:nonzero;fill:red;fill-opacity:1;" d="M 45.898438 77 C 45.839844 77.101562 45.859375 77.199219 45.980469 77.199219 C 46.078125 77.199219 46.238281 77.101562 46.300781 77 C 46.359375 76.878906 46.339844 76.800781 46.21875 76.800781 C 46.121094 76.800781 45.960938 76.878906 45.898438 77 Z M 45.898438 77 "/>
<path style=" stroke:none;fill-rule:nonzero;fill:red;fill-opacity:1;" d="M 48.121094 77.738281 C 48 78.019531 48.019531 78.039062 48.21875 77.859375 C 48.359375 77.71875 48.421875 77.558594 48.359375 77.5 C 48.300781 77.441406 48.179688 77.539062 48.121094 77.738281 Z M 48.121094 77.738281 "/>
<path style=" stroke:none;fill-rule:nonzero;fill:red;fill-opacity:1;" d="M 42.519531 78.101562 C 42.441406 78.300781 42.539062 78.398438 42.800781 78.398438 C 43.058594 78.398438 43.160156 78.300781 43.078125 78.101562 C 43 77.941406 42.878906 77.800781 42.800781 77.800781 C 42.71875 77.800781 42.601562 77.941406 42.519531 78.101562 Z M 42.519531 78.101562 "/>
<path style=" stroke:none;fill-rule:nonzero;fill:red;fill-opacity:1;" d="M 48.121094 78.378906 C 48.039062 78.5 48.078125 78.601562 48.199219 78.601562 C 48.339844 78.601562 48.398438 78.738281 48.320312 78.898438 C 48.261719 79.058594 48.300781 79.199219 48.398438 79.199219 C 48.640625 79.199219 48.660156 78.800781 48.421875 78.421875 C 48.300781 78.238281 48.199219 78.21875 48.121094 78.378906 Z M 48.121094 78.378906 "/>
<path style=" stroke:none;fill-rule:nonzero;fill:red;fill-opacity:1;" d="M 48.898438 78.78125 C 48.839844 78.878906 48.878906 79.019531 49 79.101562 C 49.101562 79.160156 49.199219 79.078125 49.199219 78.921875 C 49.199219 78.558594 49.078125 78.5 48.898438 78.78125 Z M 48.898438 78.78125 "/>
<path style=" stroke:none;fill-rule:nonzero;fill:red;fill-opacity:1;" d="M 43.980469 79.261719 C 44.121094 79.441406 44.378906 79.601562 44.558594 79.601562 C 44.839844 79.601562 44.71875 79.300781 44.441406 79.300781 C 44.359375 79.300781 44.160156 79.21875 44 79.101562 C 43.738281 78.941406 43.738281 78.960938 43.980469 79.261719 Z M 43.980469 79.261719 "/>
<path style=" stroke:none;fill-rule:nonzero;fill:red;fill-opacity:1;" d="M 44.601562 80.199219 C 44.601562 80.441406 44.761719 80.441406 45.300781 80.199219 C 45.660156 80.039062 45.640625 80.019531 45.160156 80.019531 C 44.839844 80 44.601562 80.078125 44.601562 80.199219 Z M 44.601562 80.199219 "/>
<path style=" stroke:none;fill-rule:nonzero;fill:red;fill-opacity:1;" d="M 46.800781 80.921875 C 46.800781 81.078125 46.898438 81.160156 47 81.101562 C 47.121094 81.039062 47.199219 80.898438 47.199219 80.78125 C 47.199219 80.679688 47.121094 80.601562 47 80.601562 C 46.898438 80.601562 46.800781 80.738281 46.800781 80.921875 Z M 46.800781 80.921875 "/>
<path style=" stroke:none;fill-rule:nonzero;fill:red;fill-opacity:1;" d="M 47.960938 80.738281 C 48.101562 80.800781 48.28125 80.78125 48.339844 80.71875 C 48.421875 80.660156 48.300781 80.601562 48.078125 80.621094 C 47.859375 80.621094 47.800781 80.679688 47.960938 80.738281 Z M 47.960938 80.738281 "/>
<path style=" stroke:none;fill-rule:nonzero;fill:red;fill-opacity:1;" d="M 44 81.300781 C 44 81.460938 44.101562 81.601562 44.199219 81.601562 C 44.320312 81.601562 44.398438 81.460938 44.398438 81.300781 C 44.398438 81.140625 44.320312 81 44.199219 81 C 44.101562 81 44 81.140625 44 81.300781 Z M 44 81.300781 "/>
<path style=" stroke:none;fill-rule:nonzero;fill:red;fill-opacity:1;" d="M 47.699219 82.199219 C 47.640625 82.320312 47.71875 82.339844 47.878906 82.28125 C 48.238281 82.140625 48.300781 82 48.019531 82 C 47.898438 82 47.761719 82.078125 47.699219 82.199219 Z M 47.699219 82.199219 "/>
<path style=" stroke:none;fill-rule:nonzero;fill:red;fill-opacity:1;" d="M 49.5 82.800781 C 49.441406 82.898438 49.558594 83 49.800781 83 C 50.039062 83 50.160156 82.898438 50.101562 82.800781 C 50.039062 82.679688 49.898438 82.601562 49.800781 82.601562 C 49.699219 82.601562 49.558594 82.679688 49.5 82.800781 Z M 49.5 82.800781 "/>
<path style=" stroke:none;fill-rule:nonzero;fill:red;fill-opacity:1;" d="M 48.601562 83.699219 C 48.460938 83.878906 48.398438 84.058594 48.480469 84.140625 C 48.539062 84.199219 48.601562 84.160156 48.601562 84.019531 C 48.601562 83.878906 48.679688 83.820312 48.761719 83.878906 C 48.859375 83.941406 48.941406 83.859375 48.941406 83.699219 C 48.941406 83.320312 48.898438 83.320312 48.601562 83.699219 Z M 48.601562 83.699219 "/>
<path style=" stroke:none;fill-rule:nonzero;fill:red;fill-opacity:1;" d="M 51.519531 83.898438 C 51.601562 84.058594 51.679688 84.199219 51.71875 84.199219 C 51.761719 84.199219 51.800781 84.058594 51.800781 83.898438 C 51.800781 83.738281 51.71875 83.601562 51.601562 83.601562 C 51.5 83.601562 51.460938 83.738281 51.519531 83.898438 Z M 51.519531 83.898438 "/>
<path style=" stroke:none;fill-rule:nonzero;fill:red;fill-opacity:1;" d="M 51.398438 85.800781 C 51.398438 85.898438 51.5 86 51.621094 86 C 51.71875 86 51.761719 85.898438 51.699219 85.800781 C 51.640625 85.679688 51.539062 85.601562 51.480469 85.601562 C 51.441406 85.601562 51.398438 85.679688 51.398438 85.800781 Z M 51.398438 85.800781 "/>
<path style=" stroke:none;fill-rule:nonzero;fill:red;fill-opacity:1;" d="M 70.199219 74.480469 C 70.199219 74.519531 70.339844 74.660156 70.5 74.800781 C 70.761719 75.019531 70.78125 75 70.679688 74.71875 C 70.578125 74.441406 70.199219 74.261719 70.199219 74.480469 Z M 70.199219 74.480469 "/>
<path style=" stroke:none;fill-rule:nonzero;fill:red;fill-opacity:1;" d="M 74.601562 74.601562 C 74.601562 74.699219 74.699219 74.800781 74.820312 74.800781 C 74.921875 74.800781 74.960938 74.699219 74.898438 74.601562 C 74.839844 74.480469 74.738281 74.398438 74.679688 74.398438 C 74.640625 74.398438 74.601562 74.480469 74.601562 74.601562 Z M 74.601562 74.601562 "/>
<path style=" stroke:none;fill-rule:nonzero;fill:red;fill-opacity:1;" d="M 76.398438 75.398438 C 76.160156 75.539062 76.179688 75.601562 76.5 75.71875 C 76.71875 75.800781 76.960938 75.898438 77.039062 75.941406 C 77.101562 75.960938 77.121094 75.820312 77.058594 75.601562 C 76.941406 75.160156 76.839844 75.121094 76.398438 75.398438 Z M 76.398438 75.398438 "/>
<path style=" stroke:none;fill-rule:nonzero;fill:red;fill-opacity:1;" d="M 67.140625 76 C 67.199219 76.21875 67.320312 76.339844 67.421875 76.300781 C 67.621094 76.160156 67.441406 75.601562 67.199219 75.601562 C 67.101562 75.601562 67.078125 75.78125 67.140625 76 Z M 67.140625 76 "/>
<path style=" stroke:none;fill-rule:nonzero;fill:red;fill-opacity:1;" d="M 74.121094 75.898438 C 74.058594 76.058594 74.101562 76.199219 74.199219 76.199219 C 74.320312 76.199219 74.398438 76.058594 74.398438 75.898438 C 74.398438 75.738281 74.359375 75.601562 74.320312 75.601562 C 74.28125 75.601562 74.199219 75.738281 74.121094 75.898438 Z M 74.121094 75.898438 "/>
<path style=" stroke:none;fill-rule:nonzero;fill:red;fill-opacity:1;" d="M 74.820312 76.921875 C 74.820312 77.140625 74.878906 77.199219 74.941406 77.039062 C 75 76.898438 74.980469 76.71875 74.921875 76.660156 C 74.859375 76.578125 74.800781 76.699219 74.820312 76.921875 Z M 74.820312 76.921875 "/>
<path style=" stroke:none;fill-rule:nonzero;fill:red;fill-opacity:1;" d="M 71.601562 77.660156 C 71.601562 77.820312 71.539062 78.101562 71.480469 78.28125 C 71.421875 78.460938 71.460938 78.601562 71.578125 78.601562 C 71.699219 78.601562 71.800781 78.398438 71.800781 78.140625 C 71.800781 77.78125 71.839844 77.761719 72 78 C 72.101562 78.160156 72.199219 78.199219 72.199219 78.078125 C 72.199219 77.960938 72.058594 77.738281 71.898438 77.601562 C 71.660156 77.398438 71.601562 77.398438 71.601562 77.660156 Z M 71.601562 77.660156 "/>
<path style=" stroke:none;fill-rule:nonzero;fill:red;fill-opacity:1;" d="M 69 77.761719 C 69 78 69.378906 78.28125 69.519531 78.140625 C 69.558594 78.101562 69.480469 77.941406 69.300781 77.800781 C 69.121094 77.640625 69 77.640625 69 77.761719 Z M 69 77.761719 "/>
<path style=" stroke:none;fill-rule:nonzero;fill:red;fill-opacity:1;" d="M 72.121094 78.660156 C 72.179688 78.859375 72.300781 78.960938 72.359375 78.898438 C 72.421875 78.839844 72.359375 78.679688 72.21875 78.539062 C 72.019531 78.359375 72 78.378906 72.121094 78.660156 Z M 72.121094 78.660156 "/>
<path style=" stroke:none;fill-rule:nonzero;fill:red;fill-opacity:1;" d="M 73.101562 79 C 73.039062 79.101562 73.078125 79.199219 73.179688 79.199219 C 73.300781 79.199219 73.398438 79.101562 73.398438 79 C 73.398438 78.878906 73.359375 78.800781 73.320312 78.800781 C 73.261719 78.800781 73.160156 78.878906 73.101562 79 Z M 73.101562 79 "/>
<path style=" stroke:none;fill-rule:nonzero;fill:red;fill-opacity:1;" d="M 72.398438 79.421875 C 72.398438 79.519531 72.5 79.558594 72.601562 79.5 C 72.71875 79.441406 72.800781 79.339844 72.800781 79.28125 C 72.800781 79.238281 72.71875 79.199219 72.601562 79.199219 C 72.5 79.199219 72.398438 79.300781 72.398438 79.421875 Z M 72.398438 79.421875 "/>
<path style=" stroke:none;fill-rule:nonzero;fill:red;fill-opacity:1;" d="M 71.601562 80.300781 C 71.601562 80.578125 71.699219 80.800781 71.820312 80.800781 C 71.921875 80.800781 71.980469 80.71875 71.921875 80.621094 C 71.839844 80.519531 71.898438 80.398438 72.039062 80.359375 C 72.160156 80.320312 72.199219 80.160156 72.121094 80.039062 C 71.878906 79.640625 71.601562 79.78125 71.601562 80.300781 Z M 71.601562 80.300781 "/>
<path style=" stroke:none;fill-rule:nonzero;fill:red;fill-opacity:1;" d="M 59.5 80.800781 C 59.441406 80.898438 59.519531 81 59.679688 81 C 59.859375 81 60 80.898438 60 80.800781 C 60 80.679688 59.921875 80.601562 59.820312 80.601562 C 59.699219 80.601562 59.558594 80.679688 59.5 80.800781 Z M 59.5 80.800781 "/>
<path style=" stroke:none;fill-rule:nonzero;fill:red;fill-opacity:1;" d="M 60.199219 81.699219 C 60.199219 81.859375 60.28125 82 60.398438 82 C 60.5 82 60.539062 81.859375 60.480469 81.699219 C 60.398438 81.539062 60.320312 81.398438 60.28125 81.398438 C 60.238281 81.398438 60.199219 81.539062 60.199219 81.699219 Z M 60.199219 81.699219 "/>
<path style=" stroke:none;fill-rule:nonzero;fill:red;fill-opacity:1;" d="M 57 85 C 57 85.101562 57.101562 85.199219 57.21875 85.199219 C 57.320312 85.199219 57.359375 85.101562 57.300781 85 C 57.238281 84.878906 57.140625 84.800781 57.078125 84.800781 C 57.039062 84.800781 57 84.878906 57 85 Z M 57 85 "/>
<path style=" stroke:none;fill-rule:nonzero;fill:red;fill-opacity:1;" d="M 60.101562 85.199219 C 60.160156 85.300781 60.261719 85.398438 60.320312 85.398438 C 60.359375 85.398438 60.398438 85.300781 60.398438 85.199219 C 60.398438 85.078125 60.300781 85 60.179688 85 C 60.078125 85 60.039062 85.078125 60.101562 85.199219 Z M 60.101562 85.199219 "/>
<path style=" stroke:none;fill-rule:nonzero;fill:red;fill-opacity:1;" d="M 60 85.820312 C 60 85.921875 60.101562 85.960938 60.199219 85.898438 C 60.320312 85.839844 60.398438 85.738281 60.398438 85.679688 C 60.398438 85.640625 60.320312 85.601562 60.199219 85.601562 C 60.101562 85.601562 60 85.699219 60 85.820312 Z M 60 85.820312 "/>
<path style=" stroke:none;fill-rule:nonzero;fill:red;fill-opacity:1;" d="M 58.699219 86.179688 C 58.640625 86.28125 58.679688 86.421875 58.800781 86.5 C 58.898438 86.558594 59 86.480469 59 86.320312 C 59 85.960938 58.878906 85.898438 58.699219 86.179688 Z M 58.699219 86.179688 "/>
</g>
</svg>
