<?xml version="1.0" encoding="UTF-8"?>
<svg xmlns="http://www.w3.org/2000/svg" xmlns:xlink="http://www.w3.org/1999/xlink" width="30px" height="30px" viewBox="0 0 30 30" version="1.1">
<g id="surface1">
<path style="fill:none;stroke-width:1.5;stroke-linecap:round;stroke-linejoin:round;stroke:#e8ca05;stroke-opacity:1;stroke-miterlimit:4;" d="M 14.33125 15.940625 L 15.659375 14.609375 C 15.865625 14.403125 16.109375 14.2375 16.378125 14.125 C 16.646875 14.0125 16.934375 13.95625 17.225 13.95625 C 17.515625 13.95625 17.80625 14.0125 18.075 14.125 C 18.34375 14.2375 18.5875 14.403125 18.790625 14.609375 L 20.35 16.16875 C 20.559375 16.375 20.721875 16.61875 20.834375 16.8875 C 20.946875 17.15625 21.003125 17.44375 21.003125 17.734375 C 21.003125 18.025 20.946875 18.315625 20.834375 18.584375 C 20.721875 18.853125 20.559375 19.096875 20.35 19.3 L 19.640625 20.01875 C 19.153125 20.5125 18.51875 20.840625 17.834375 20.953125 C 17.146875 21.06875 16.44375 20.959375 15.821875 20.65 C 10.46875 17.89375 6.109375 13.540625 3.35 8.190625 C 3.040625 7.56875 2.934375 6.8625 3.05 6.175 C 3.165625 5.490625 3.49375 4.85625 3.990625 4.36875 L 4.7 3.65 C 5.115625 3.2375 5.678125 3.003125 6.265625 3.003125 C 6.853125 3.003125 7.415625 3.2375 7.83125 3.65 L 9.4 5.21875 C 9.815625 5.6375 10.046875 6.2 10.046875 6.784375 C 10.046875 7.371875 9.815625 7.934375 9.4 8.35 L 8.071875 9.68125 C 8.95 10.86875 9.915625 11.99375 10.959375 13.040625 C 12 14.08125 13.115625 15.040625 14.3 15.909375 Z M 14.33125 15.940625 " transform="matrix(1.25,0,0,1.25,0,0)"/>
<path style="fill:none;stroke-width:1.5;stroke-linecap:round;stroke-linejoin:round;stroke:#e8ca05;stroke-opacity:1;stroke-miterlimit:4;" d="M 18.209375 8.840625 C 18.05625 8.096875 17.69375 7.4125 17.159375 6.871875 C 16.628125 6.33125 15.953125 5.95625 15.209375 5.790625 " transform="matrix(1.25,0,0,1.25,0,0)"/>
<path style="fill:none;stroke-width:1.5;stroke-linecap:round;stroke-linejoin:round;stroke:#e8ca05;stroke-opacity:1;stroke-miterlimit:4;" d="M 22 7.509375 C 21.628125 6.2 20.928125 5.00625 19.965625 4.040625 C 19.003125 3.078125 17.809375 2.375 16.5 2 " transform="matrix(1.25,0,0,1.25,0,0)"/>
</g>
</svg>
