<?xml version="1.0" encoding="UTF-8"?>
<svg xmlns="http://www.w3.org/2000/svg" xmlns:xlink="http://www.w3.org/1999/xlink" width="30px" height="30px" viewBox="0 0 30 30" version="1.1">
<g id="surface1">
<path style=" stroke:none;fill-rule:nonzero;fill:#e8ca05;fill-opacity:1;" d="M 7.515625 10.007812 C 7.660156 8.878906 9.128906 7.34375 10.292969 7.511719 C 11.425781 7.726562 12.324219 9.679688 12.828125 10.554688 C 13.1875 11.191406 12.957031 11.835938 12.621094 12.109375 C 12.167969 12.472656 11.464844 12.976562 11.613281 13.480469 C 11.875 14.375 15 17.5 16.535156 18.386719 C 17.117188 18.726562 17.539062 17.835938 17.902344 17.382812 C 18.164062 17.035156 18.808594 16.824219 19.445312 17.171875 C 20.390625 17.722656 21.285156 18.363281 22.113281 19.085938 C 22.523438 19.433594 22.621094 19.941406 22.335938 20.480469 C 21.832031 21.429688 20.375 22.683594 19.316406 22.425781 C 17.46875 21.984375 10 19.085938 7.601562 10.699219 C 7.464844 10.300781 7.5 10.152344 7.515625 10.007812 Z M 7.515625 10.007812 "/>
<path style=" stroke:none;fill-rule:evenodd;fill:#e8ca05;fill-opacity:1;" d="M 15 28.75 C 13.46875 28.75 12.625 28.585938 11.25 28.125 L 8.617188 29.441406 C 6.957031 30.273438 5 29.0625 5 27.203125 L 5 24.375 C 2.308594 21.863281 1.25 18.972656 1.25 15 C 1.25 7.40625 7.40625 1.25 15 1.25 C 22.59375 1.25 28.75 7.40625 28.75 15 C 28.75 22.59375 22.59375 28.75 15 28.75 Z M 7.5 23.289062 L 6.703125 22.546875 C 4.613281 20.597656 3.75 18.417969 3.75 15 C 3.75 8.785156 8.785156 3.75 15 3.75 C 21.214844 3.75 26.25 8.785156 26.25 15 C 26.25 21.214844 21.214844 26.25 15 26.25 C 13.769531 26.25 13.191406 26.140625 12.046875 25.753906 L 11.0625 25.425781 L 7.5 27.203125 Z M 7.5 23.289062 "/>
</g>
</svg>
